<svg xmlns="http://www.w3.org/2000/svg" xmlns:xlink="http://www.w3.org/1999/xlink" viewBox="0 0 895.7 592.36"><defs><style>.cls-1,.cls-12,.cls-8{fill:none;}.cls-2{isolation:isolate;}.cls-3{fill:#f7ede8;}.cls-4{fill:#f7f5b5;}.cls-5{fill:#3d3d3d;}.cls-13,.cls-6{fill:#fcdac8;}.cls-7{fill:#afa3e2;}.cls-8{stroke:#afa3e2;stroke-width:0.73px;}.cls-12,.cls-8{stroke-miterlimit:10;}.cls-10,.cls-12,.cls-13,.cls-8{mix-blend-mode:multiply;}.cls-9{fill:#f2eea5;}.cls-11{fill:#fbd2ae;}.cls-12{stroke:#fcdac8;stroke-width:1.32px;}.cls-14{fill:#f2a5a5;}.cls-15{fill:#ececec;}.cls-16{fill:#fff;}.cls-17{fill:#ccc;}.cls-18{fill:#e6e6e6;}.cls-19{clip-path:url(#clip-path);}.cls-20{fill:#efdbd3;}.cls-21{fill:#36ae7a;}.cls-22{fill:#49c18b;}.cls-23{fill:#66cc9e;}.cls-24{fill:#61ce99;}.cls-25{fill:#9beac4;}.cls-26{fill:#12d3b4;}.cls-27{fill:#db8d8d;}</style><clipPath id="clip-path"><path class="cls-1" d="M894.56,352c13.33,136.53-92.12,229.58-228.91,239.94-54.87,4.15-117.21-17.67-151.59-25.11-65.47-14.17-195-4.84-211.21-3.23C169.1,576.85,52.94,490.21,48.06,355.88c-4.55-125.29,91.09-232.54,217.12-241.39q2.05-.14,4.1-.25C332.54,110.89,392.75,87,443,48.33A232.56,232.56,0,0,1,568.92.58c104.8-7.36,198.29,55.58,234.3,148.7,11.92,30.81,27.24,60.25,46.88,86.82A232.39,232.39,0,0,1,894.56,352Z"/></clipPath></defs><title>Osta</title><g class="cls-2"><g id="Layer_1" data-name="Layer 1"><path class="cls-3" d="M894.56,352c13.33,136.53-92.12,229.58-228.91,239.94-54.87,4.15-117.21-17.67-151.59-25.11-65.47-14.17-195-4.84-211.21-3.23C169.1,576.85,52.94,490.21,48.06,355.88c-4.55-125.29,91.09-232.54,217.12-241.39q2.05-.14,4.1-.25C332.54,110.89,392.75,87,443,48.33A232.56,232.56,0,0,1,568.92.58c104.8-7.36,198.29,55.58,234.3,148.7,11.92,30.81,27.24,60.25,46.88,86.82A232.39,232.39,0,0,1,894.56,352Z"/><polygon class="cls-4" points="643.84 269.23 613.74 280.01 619.24 270.95 646.43 262.04 643.84 269.23"/><path class="cls-5" d="M605.77,166.56a14.36,14.36,0,0,1,4.75,12c-.77,8.43,4.07,11.37,6.14,13.58,3.61,3.85,6,12.6,1.51,22.1s-25.6,7.18-25.6,7.18H563.84s-12.74-3-11.24-18.53,10.94-14,13.67-15.87c11.11-7.5,4.26-12.34,8.11-18.77C581.79,155.82,603,164.41,605.77,166.56Z"/><path class="cls-6" d="M604.19,171.16l5.27,24.45a.65.65,0,0,1-.63.79h-2.4v8.73a2.82,2.82,0,0,1-2.82,2.82h-9.88l-.41,21.1,9.19,13.87-14.2,2.43-14-15.13v-8.83l13-34.78s-2.5-2.8-3.21-3.83c-1.88-2.71.05-6.63,3.13-6.32l2.63.23S597.17,177.72,604.19,171.16Z"/><path class="cls-7" d="M574.3,221.39s-13.09,5.65-16.08,11.07-2.24,31.58,0,41.29,5.23,53.3,3.74,55.33,42.44-.37,47.67-1.29c3.82-.68-7.13-31.06-6.38-40.59.11-1.4-.15-3.29.7-5.08s1.53-8.79,1.56-8.93c1.77-10.82,3-23.77-3-30.27-2.06-2.23-13.83,1.08-22.79-10.65C576.93,228.64,574.3,221.39,574.3,221.39Z"/><path class="cls-7" d="M588.37,298.05s-18.32,6.69-22.73,7.16-7.2-3.63-7.35-5.3-1.1-44.2-1.1-44.2c-.41-17.91,3.12-17.64,3.12-17.64s11.53-6.19,15.6,2.72c3.36,7.34.31,46.47.31,46.47l11-1.8s-1.1,7.91,1.11,12.59"/><path class="cls-8" d="M560.31,238.07s11.53-6.19,15.6,2.72c3.36,7.34.31,46.47.31,46.47l11-1.8s-1.1,7.91,1.11,12.59"/><path class="cls-8" d="M588.37,298.05s-18.32,6.69-22.73,7.16-7.2-3.63-7.35-5.3-1.1-44.2-1.1-44.2"/><path class="cls-6" d="M584.73,286.31l32.91-7.77s5.33-10.2,7.08-11.23,2.08,3.11-.06,6.71,9.95,1.27,15-5.75c3.19-4.42,3.85,6,3.43,6.8s-9,11.19-15.49,11.06-7.37,1.16-7.37,1.16l-32.67,11.23S581.73,290.85,584.73,286.31Z"/><path class="cls-4" d="M532.83,476.44c3.33-5.32,33.28-59.37,41.46-75.71S592,342.82,592,342.82l-3.66-16.7-21.08,4s-4.07,11.89-8.44,27.79-16,50.66-18.55,56.21-27.37,62.33-27.37,62.33Z"/><path class="cls-9" d="M609.63,327.79S612,349,614.56,355.69s16.64,45.86,17.38,48.08,26.62,59.6,26.62,59.6H637.63s-27.88-39.63-32.13-55.16-21.27-33.28-25.7-39.2-15.16-27.47-12.57-38.88S608.87,321.61,609.63,327.79Z"/><path class="cls-6" d="M628.08,259.15c.52-.21,1-.4,1.17-.43.64-.14,1.58,2.51-2.14,3.94l-2.65,1.93a12.87,12.87,0,0,1-7.44,3.83l-11.5,4.78,1.09-8.06,6.14-1.53,4.49-5.69s9.32-5.39,12.15-4.28,8,5.06,8,5.06-.13,1.64-2.71.65a24.36,24.36,0,0,1-5.14-3l-1.88,1.07S628.49,258.41,628.08,259.15Z"/><g class="cls-10"><path class="cls-11" d="M627.9,259.27q-1.24.64-2.5,1.24a10,10,0,0,1-1.26.58,6.34,6.34,0,0,1-1.38.3l0-.05a6.38,6.38,0,0,1,1.19-.76,9.93,9.93,0,0,1,1.3-.48q1.31-.46,2.64-.88Z"/></g><path class="cls-12" d="M412.63,346.27c16.55-155.33,96.78-275,96.78-275-.44-1.63-3.65.24-3.65.24s-80.23,119.7-96.78,275Z"/><path class="cls-12" d="M465.16,335.33c4.22-17.87-5.15-32.27-11.95-42.25s-7.35-33.15-7.35-33.15c25-22.93,17.43-67.43,17.43-67.43,24.38-20.93,24.58-59.37,24.58-59.37,31.46-26.18,24.93-58.6,24.93-58.6l-4.1-2.21"/><circle class="cls-12" cx="440.34" cy="329.26" r="25.22" transform="matrix(1, -0.06, 0.06, 1, -20.29, 29.04)"/><circle class="cls-12" cx="440.34" cy="329.26" r="17.78" transform="translate(-20.29 29.04) rotate(-3.69)"/><circle class="cls-12" cx="440.34" cy="329.26" r="8.25" transform="translate(-20.29 29.04) rotate(-3.69)"/><line class="cls-12" x1="487.88" y1="133.14" x2="477.78" y2="128.02"/><line class="cls-12" x1="463.29" y1="192.5" x2="451.65" y2="188.02"/><line class="cls-12" x1="445.86" y1="259.93" x2="429.81" y2="255.16"/><path class="cls-12" d="M512.48,74.39a33.42,33.42,0,0,1,10.81,30.21c-3,19.15-13.81,35.35-13.81,35.35"/><ellipse class="cls-12" cx="505.3" cy="146.7" rx="7.93" ry="4.72" transform="translate(113.87 498.31) rotate(-58.12)"/><path class="cls-12" d="M501.11,153.43s-3.14,5.36-3.61,7.26"/><circle class="cls-12" cx="496.59" cy="163.56" r="2.91" transform="translate(95.45 498.88) rotate(-58.12)"/><path class="cls-13" d="M495.06,166s-3.67,12-.69,14.76c3.26,3.05,5.67,3.29,9.32.42s2.16-10.48,2.16-10.48-6.34,5.78-5.08,8.68-5.25.69-4.71-4.34c.72-6.65,1-8.64,1-8.64Z"/><path class="cls-6" d="M414.25,176.43l7.53,15.07a.49.49,0,0,1-.44.71h-5.53s.12,7.49.4,9.17a35.26,35.26,0,0,1,0,8.62c-.42,2-5.2,1.4-5.2,1.4s.56,14,2.24,15.14-19.63-2-23.55-5.33-2.8-29.44-2.8-29.44S405.4,172.86,414.25,176.43Z"/><path class="cls-5" d="M411.35,170a3.29,3.29,0,0,0,1.75,1.14,7.29,7.29,0,0,0,3-.28c.55-.28.45,4.86-1.83,5.57-2.58.81-8.8-.91-11.61,6.38s-6.17,8.13-5.89,10.94-1.68,1.4-1.68,1.4-.84-3.93-3.65-2.8-3.93,3.5-2.24,9,.63,3.9-.79,5.26S375.5,204.47,371,184C366.56,163.72,392.72,146.8,411.35,170Z"/><path class="cls-4" d="M372.37,193.11l52.09-29.88s.77-3.32-2.3-3.06-12.26,6.64-12.26,6.64-4.85-12.26-21.71-11-18.9,18.29-19.15,18.6,0,5.41,0,5.41,7.92-1.28,8.43,3.32-7,6.38-7,6.38S371.71,193.49,372.37,193.11Z"/><path class="cls-14" d="M388.16,217.83s-17.91,12.27-17.64,16,6.17,98.45,6.17,98.45l65.63-1.84s-26-103.84-29-103.84C396.55,226.55,388.16,217.83,388.16,217.83Z"/><path class="cls-15" d="M412.91,387.32s1.62,9.59,0,13.41-28.33,79.66-29.07,80.64S364.92,481,365,471.25c0-2.29,18.84-59.19,18.8-65.72s0-60.47,0-60.47S414.86,380.54,412.91,387.32Z"/><path class="cls-16" d="M429.24,330.76s23.83,65,25.14,70.52,12.85,73.86,12.85,73.86l-18.81,3.26S429.57,414,427,406.83s-38.08-47-42.54-60.07-2.67-17.54-2.1-17.91,46.27,0,46.27,0Z"/><path class="cls-16" d="M406,298.32c0-3.17-3.76-6-10.8-8.34-7.71-2.41-13.69-3.76-20.67-3.87-4.11-.35-8.45-.47-12.8-.47-5.64,0-11,.35-16.2.82-10.73,1.22-16.95,2.26-21,4.7-4.58,2-7,4.34-7,6.93a4.17,4.17,0,0,0,.23,1.17h0l6.11,35c0,6.81,19.26,10.8,37.93,10.8s37.93-4,37.93-10.69l6.11-35.11h0C406,299.14,406,298.67,406,298.32Z"/><path class="cls-17" d="M406,298.32c0-3.17-3.76-6-10.8-8.34-2-4.93-5.17-6.69-5.4-6.81a.36.36,0,0,0-.47,0l-.35.35-.59,2.82L387,280.24c0-.12-.12-.23-.23-.35a.71.71,0,0,0-.47-.12,29.19,29.19,0,0,0-11.74,6.34c-4.11-.35-8.45-.47-12.8-.47-5.64,0-11,.35-16.2.82,7-8.57,5.87-20.08,5.87-20.31s-.23-.59-.59-.47a23.18,23.18,0,0,0-18.55,9.75,23.51,23.51,0,0,0-18.55-9.75.54.54,0,0,0-.59.47c0,.23-1.64,17,11.39,25-4.58,2-7,4.34-7,6.93a4.17,4.17,0,0,0,.23,1.17h0l6.11,35c0,6.81,19.26,10.8,37.93,10.8s37.93-4,37.93-10.69l6.11-35.11h0C406,299.14,406,298.67,406,298.32Zm-1.17,0c0,2.35-2.94,4.58-8.1,6.46v-.23c0-.47.12-.82.12-1.29v-.47a17.66,17.66,0,0,0,0-3.52v-.12a28.15,28.15,0,0,0-1.29-7.87C401.56,293.39,404.84,296,404.84,298.32Zm-16.91-9a.78.78,0,0,0,.59.47h0a.78.78,0,0,0,.59-.47l.94-4.46a14.12,14.12,0,0,1,4.46,6.58c.12.12.12.35.23.47a2.76,2.76,0,0,1,.23.94c0,.12.12.35.12.47.12.35.12.7.23,1.06,0,.12.12.35.12.47.12.35.12.82.23,1.17a1.06,1.06,0,0,0,.12.59c0,.47.12.82.12,1.29v4.93a17.65,17.65,0,0,1-.23,2.35h0l-2.11.7c-.12,0-.23.12-.47.12a61.12,61.12,0,0,1-7.63,1.76h0a140.57,140.57,0,0,1-23.37,1.88v-.23c0-.23.12-.35.23-.59v-.12c.12-.23.12-.47.23-.59s.12-.23.12-.35a2.18,2.18,0,0,0,.23-.82c0-.12.12-.35.12-.47s.12-.35.23-.59.12-.35.23-.59.12-.23.12-.35a7.18,7.18,0,0,1,.59-1.41c0-.12.12-.23.12-.35a22,22,0,0,1,1.41-2.94h0a42.66,42.66,0,0,1,8.45-11.86l.35-.35a28.13,28.13,0,0,1,11.51-6.69Zm-23.37,10.57a52.65,52.65,0,0,0-3.76,9.86c-1.29,0-2.58-.12-3.87-.12C358,305.25,362.1,301.61,364.57,299.85ZM344.49,288a137.39,137.39,0,0,1,17.38-.94c3.87,0,7.87.12,11.51.47-2.87,2.41-7.28,9.39-7.75,10.22h0a30.17,30.17,0,0,0-7.28,6.46,40.35,40.35,0,0,0-2.7,5.52c-2.58-.12-5-.23-7.52-.47-3.11-1.11-8.92-11-8.92-11a47.94,47.94,0,0,1-2.23-4.93.41.41,0,0,0,.23-.12c.47-.23,3.64-1.88,3.76-2s.23-.12.35-.23A27.69,27.69,0,0,0,344.49,288Zm-8,19.49c-.23,0-.47-.12-.7-.12s-.47-.12-.7-.12l-1.53-.35c-.12,0-.35-.12-.47-.12l-1.53-.35h-.23c-1.17-.35-2.35-.7-3.41-1.06-.12-.47-.12-1.06-.23-1.53v-.47a4,4,0,0,0-.12-1.17v-2.11a7.75,7.75,0,0,1,.12-1.64h0a83.61,83.61,0,0,1,4.34-19c.12.47.12.82.23,1.29a3.43,3.43,0,0,0,.23,1.06,61.12,61.12,0,0,0,1.76,7.63c0,.12,0,.12.12.23,3.41,11.27,8.81,17,11.62,19.37C342.61,308.54,339.44,308.07,336.5,307.48Zm14-40.39c.12,2.47.23,12.92-6.93,20.2l-1.29,1.29-.23.23a20.07,20.07,0,0,1-1.64,1.29l-.12.12c-.59.35-1.17.7-1.88,1.06a.41.41,0,0,0-.23.12c-.47.23-1.06.47-1.53.7a63.09,63.09,0,0,1-3.41-14.91v-.35C333.92,275.42,339.21,267.67,350.48,267.08Zm-36,0a22,22,0,0,1,17.38,9.63,95.42,95.42,0,0,0-4.34,14.91c-.12,0-.12,0-.23-.12a.12.12,0,0,1-.12-.12,6.92,6.92,0,0,1-.94-.47h0C314.19,284.35,314.31,270,314.43,267.08Zm11.51,25.13c.35.12.59.35.94.47.12.12.23.12.35.23a41.71,41.71,0,0,0-.7,9.28h0a19.2,19.2,0,0,0,.23,2.58h0c-5-1.88-8-4.23-8-6.46S321.36,294.09,325.94,292.21Zm72.68,42.27c0,4.7-14.8,9.63-36.75,9.63s-36.75-4.93-36.75-9.75L319.48,302a21,21,0,0,0,7.87,4.23h0c.12,0,.12,0,.23.12.59.23,1.06.35,1.64.59.12,0,.35.12.47.12.47.12,1.06.35,1.64.47.23,0,.47.12.7.12.47.12.94.23,1.53.35.23.12.59.12.82.23.47.12,1.06.23,1.64.35,3.64.7,7.75,1.29,12.21,1.76h0c2.7.23,5.4.35,8.22.47h.47c1.53,0,3.17.12,4.7.12h.47a134.31,134.31,0,0,0,26.07-2.35.43.43,0,0,0,.35-.12c.59-.12,1.06-.23,1.53-.35s.7-.12,1.06-.23.47-.12.7-.12c6.11-1.53,10.45-3.52,12.8-5.75Z"/><circle class="cls-18" cx="358.35" cy="341.88" r="0.94"/><circle class="cls-18" cx="362.57" cy="341.88" r="0.94"/><circle class="cls-18" cx="366.8" cy="341.88" r="0.94"/><circle class="cls-18" cx="358.35" cy="338.36" r="0.94"/><circle class="cls-18" cx="362.57" cy="338.36" r="0.94"/><circle class="cls-18" cx="366.8" cy="338.36" r="0.94"/><circle class="cls-18" cx="358.35" cy="334.84" r="0.94"/><circle class="cls-18" cx="362.57" cy="334.84" r="0.94"/><circle class="cls-18" cx="366.8" cy="334.84" r="0.94"/><circle class="cls-18" cx="358.35" cy="331.43" r="0.94"/><circle class="cls-18" cx="362.57" cy="331.43" r="0.94"/><circle class="cls-18" cx="366.8" cy="331.43" r="0.94"/><circle class="cls-18" cx="358.35" cy="327.91" r="0.94"/><circle class="cls-18" cx="362.57" cy="327.91" r="0.94"/><circle class="cls-18" cx="366.8" cy="327.91" r="0.94"/><circle class="cls-18" cx="358.35" cy="324.39" r="0.94"/><circle class="cls-18" cx="362.57" cy="324.39" r="0.94"/><circle class="cls-18" cx="366.8" cy="324.39" r="0.94"/><circle class="cls-18" cx="358.35" cy="320.86" r="0.94"/><circle class="cls-18" cx="362.57" cy="320.86" r="0.94"/><circle class="cls-18" cx="366.8" cy="320.86" r="0.94"/><circle class="cls-18" cx="358.35" cy="317.34" r="0.94"/><circle class="cls-18" cx="362.57" cy="317.34" r="0.94"/><circle class="cls-18" cx="366.8" cy="317.34" r="0.94"/><circle class="cls-18" cx="358.35" cy="313.82" r="0.94"/><circle class="cls-18" cx="362.57" cy="313.82" r="0.94"/><circle class="cls-18" cx="366.8" cy="313.82" r="0.94"/><path class="cls-18" d="M384.88,338.71a1.77,1.77,0,0,0-1.06,1.17.66.66,0,0,0,.82.7,1.77,1.77,0,0,0,1.06-1.17A.58.58,0,0,0,384.88,338.71Z"/><path class="cls-18" d="M389.23,337.42a1.77,1.77,0,0,0-1.06,1.17.66.66,0,0,0,.82.7,1.77,1.77,0,0,0,1.06-1.17C390.17,337.54,389.7,337.3,389.23,337.42Z"/><path class="cls-18" d="M393.57,336.13a1.77,1.77,0,0,0-1.06,1.17.66.66,0,0,0,.82.7,1.77,1.77,0,0,0,1.06-1.17A.63.63,0,0,0,393.57,336.13Z"/><path class="cls-18" d="M385.12,335.19a1.77,1.77,0,0,0-1.06,1.17.66.66,0,0,0,.82.7,1.77,1.77,0,0,0,1.06-1.17A.58.58,0,0,0,385.12,335.19Z"/><path class="cls-18" d="M389.46,333.9a1.77,1.77,0,0,0-1.06,1.17.66.66,0,0,0,.82.7,1.77,1.77,0,0,0,1.06-1.17C390.4,334,390,333.78,389.46,333.9Z"/><path class="cls-18" d="M393.81,332.72a1.77,1.77,0,0,0-1.06,1.17.66.66,0,0,0,.82.7,1.77,1.77,0,0,0,1.06-1.17C394.75,332.84,394.28,332.49,393.81,332.72Z"/><path class="cls-18" d="M385.47,331.67a1.77,1.77,0,0,0-1.06,1.17.66.66,0,0,0,.82.7,1.77,1.77,0,0,0,1.06-1.17A.63.63,0,0,0,385.47,331.67Z"/><path class="cls-18" d="M389.7,330.38a1.77,1.77,0,0,0-1.06,1.17.66.66,0,0,0,.82.7,1.77,1.77,0,0,0,1.06-1.17C390.64,330.61,390.28,330.26,389.7,330.38Z"/><path class="cls-18" d="M394,329.2a1.77,1.77,0,0,0-1.06,1.17.66.66,0,0,0,.82.7,1.77,1.77,0,0,0,1.06-1.17C395,329.32,394.63,329,394,329.2Z"/><path class="cls-18" d="M385.7,328.14a1.77,1.77,0,0,0-1.06,1.17.66.66,0,0,0,.82.7,1.77,1.77,0,0,0,1.06-1.17A.63.63,0,0,0,385.7,328.14Z"/><path class="cls-18" d="M390,326.85A1.77,1.77,0,0,0,389,328a.66.66,0,0,0,.82.7,1.77,1.77,0,0,0,1.06-1.17A.66.66,0,0,0,390,326.85Z"/><path class="cls-18" d="M394.28,325.68a1.77,1.77,0,0,0-1.06,1.17.66.66,0,0,0,.82.7,1.77,1.77,0,0,0,1.06-1.17C395.22,325.8,394.86,325.56,394.28,325.68Z"/><path class="cls-18" d="M385.94,324.62a1.77,1.77,0,0,0-1.06,1.17.66.66,0,0,0,.82.7,1.77,1.77,0,0,0,1.06-1.17A.63.63,0,0,0,385.94,324.62Z"/><path class="cls-18" d="M390.28,323.45a1.77,1.77,0,0,0-1.06,1.17.66.66,0,0,0,.82.7,1.77,1.77,0,0,0,1.06-1.17C391.22,323.57,390.75,323.21,390.28,323.45Z"/><path class="cls-18" d="M394.63,322.16a1.77,1.77,0,0,0-1.06,1.17.66.66,0,0,0,.82.7,1.77,1.77,0,0,0,1.06-1.17C395.45,322.27,395.1,322,394.63,322.16Z"/><path class="cls-18" d="M386.17,321.1a1.77,1.77,0,0,0-1.06,1.17.66.66,0,0,0,.82.7A1.77,1.77,0,0,0,387,321.8C387.11,321.33,386.76,321,386.17,321.1Z"/><path class="cls-18" d="M390.52,319.93a1.77,1.77,0,0,0-1.06,1.17.66.66,0,0,0,.82.7,1.77,1.77,0,0,0,1.06-1.17C391.46,320,391,319.69,390.52,319.93Z"/><path class="cls-18" d="M394.86,318.63a1.77,1.77,0,0,0-1.06,1.17.66.66,0,0,0,.82.7,1.77,1.77,0,0,0,1.06-1.17C395.8,318.75,395.33,318.52,394.86,318.63Z"/><path class="cls-18" d="M386.41,317.58a1.77,1.77,0,0,0-1.06,1.17.66.66,0,0,0,.82.7,1.77,1.77,0,0,0,1.06-1.17C387.35,317.81,387,317.46,386.41,317.58Z"/><path class="cls-18" d="M390.75,316.4a1.77,1.77,0,0,0-1.06,1.17.66.66,0,0,0,.82.7,1.77,1.77,0,0,0,1.06-1.17C391.69,316.52,391.34,316.28,390.75,316.4Z"/><path class="cls-18" d="M395.1,315.11a1.77,1.77,0,0,0-1.06,1.17.66.66,0,0,0,.82.7,1.77,1.77,0,0,0,1.06-1.17C396,315.23,395.57,315,395.1,315.11Z"/><path class="cls-18" d="M386.76,314.05a1.77,1.77,0,0,0-1.06,1.17.66.66,0,0,0,.82.7,1.77,1.77,0,0,0,1.06-1.17A.66.66,0,0,0,386.76,314.05Z"/><path class="cls-18" d="M391,312.88a1.77,1.77,0,0,0-1.06,1.17.66.66,0,0,0,.82.7,1.77,1.77,0,0,0,1.06-1.17C391.93,313,391.58,312.76,391,312.88Z"/><path class="cls-18" d="M395.33,311.59a1.77,1.77,0,0,0-1.06,1.17.66.66,0,0,0,.82.7,1.77,1.77,0,0,0,1.06-1.17C396.27,311.82,395.92,311.47,395.33,311.59Z"/><path class="cls-18" d="M387,310.65a1.77,1.77,0,0,0-1.06,1.17.66.66,0,0,0,.82.7,1.77,1.77,0,0,0,1.06-1.17A.6.6,0,0,0,387,310.65Z"/><path class="cls-18" d="M391.22,309.36a1.77,1.77,0,0,0-1.06,1.17.66.66,0,0,0,.82.7,1.77,1.77,0,0,0,1.06-1.17C392.16,309.47,391.81,309.24,391.22,309.36Z"/><path class="cls-18" d="M395.57,308.07a1.77,1.77,0,0,0-1.06,1.17.66.66,0,0,0,.82.7,1.77,1.77,0,0,0,1.06-1.17C396.51,308.3,396.16,307.95,395.57,308.07Z"/><path class="cls-18" d="M340.14,339.18c-.47-.12-.94.12-.82.7a1.38,1.38,0,0,0,1.06,1.17c.47.12.94-.12.82-.7A1.53,1.53,0,0,0,340.14,339.18Z"/><path class="cls-18" d="M335.8,338c-.47-.12-.94.12-.82.7a1.36,1.36,0,0,0,1.06,1.17c.47.12.94-.12.82-.7A1.36,1.36,0,0,0,335.8,338Z"/><path class="cls-18" d="M331.57,336.72c-.47-.12-.94.12-.82.7a1.36,1.36,0,0,0,1.06,1.17c.47.12.94-.12.82-.7A1.77,1.77,0,0,0,331.57,336.72Z"/><path class="cls-18" d="M340,337.54c.47.12.94-.12.82-.7a1.38,1.38,0,0,0-1.06-1.17c-.47-.12-.94.12-.82.7A1.55,1.55,0,0,0,340,337.54Z"/><path class="cls-18" d="M335.68,336.36c.47.12.94-.12.82-.7a1.36,1.36,0,0,0-1.06-1.17c-.47-.12-.94.12-.82.7A2.06,2.06,0,0,0,335.68,336.36Z"/><path class="cls-18" d="M331.46,335.07c.47.12.94-.12.82-.7a1.36,1.36,0,0,0-1.06-1.17c-.47-.12-.94.12-.82.7A1.36,1.36,0,0,0,331.46,335.07Z"/><path class="cls-18" d="M339.79,334c.47.12.94-.12.82-.7a1.38,1.38,0,0,0-1.06-1.17c-.47-.12-.94.12-.82.7A1.38,1.38,0,0,0,339.79,334Z"/><path class="cls-18" d="M335.45,332.84c.47.12.94-.12.82-.7a1.36,1.36,0,0,0-1.06-1.17c-.47-.12-.94.12-.82.7A1.77,1.77,0,0,0,335.45,332.84Z"/><path class="cls-18" d="M331.1,331.55c.47.12.94-.12.82-.7a1.36,1.36,0,0,0-1.06-1.17c-.47-.12-.94.12-.82.7A1.77,1.77,0,0,0,331.1,331.55Z"/><path class="cls-18" d="M339.56,330.49c.47.12.94-.12.82-.7a1.36,1.36,0,0,0-1.06-1.17c-.47-.12-.94.12-.82.7A1.38,1.38,0,0,0,339.56,330.49Z"/><path class="cls-18" d="M335.21,329.32c.47.12.94-.12.82-.7a1.36,1.36,0,0,0-1.06-1.17c-.59-.12-.94.12-.82.7A1.53,1.53,0,0,0,335.21,329.32Z"/><path class="cls-18" d="M330.87,328c.47.12.94-.12.82-.7a1.36,1.36,0,0,0-1.06-1.17c-.47-.12-.94.12-.82.7A1.55,1.55,0,0,0,330.87,328Z"/><path class="cls-18" d="M339.32,327.09c.47.12.94-.12.82-.7a1.36,1.36,0,0,0-1.06-1.17c-.47-.12-.94.12-.82.7A1.53,1.53,0,0,0,339.32,327.09Z"/><path class="cls-18" d="M335,325.8c.47.12.94-.12.82-.7a1.36,1.36,0,0,0-1.06-1.17c-.47-.12-.94.12-.82.7A1.36,1.36,0,0,0,335,325.8Z"/><path class="cls-18" d="M330.63,324.62c.47.12.94-.12.82-.7a1.36,1.36,0,0,0-1.06-1.17c-.47-.12-.94.12-.82.7A1.73,1.73,0,0,0,330.63,324.62Z"/><path class="cls-18" d="M339,323.57c.47.12.94-.12.82-.7a1.36,1.36,0,0,0-1.06-1.17c-.47-.12-.94.12-.82.7A1.77,1.77,0,0,0,339,323.57Z"/><path class="cls-18" d="M334.74,322.27c.47.12.94-.12.82-.7a1.36,1.36,0,0,0-1.06-1.17c-.47-.12-.94.12-.82.7A1.36,1.36,0,0,0,334.74,322.27Z"/><path class="cls-18" d="M330.4,321.1c.47.12.94-.12.82-.7a1.36,1.36,0,0,0-1.06-1.17c-.47-.12-.94.12-.82.7S329.81,320.86,330.4,321.1Z"/><path class="cls-18" d="M338.74,320c.47.12.94-.12.82-.7a1.36,1.36,0,0,0-1.06-1.17c-.47-.12-.94.12-.82.7A1.55,1.55,0,0,0,338.74,320Z"/><path class="cls-18" d="M334.39,318.75c.47.12.94-.12.82-.7a1.36,1.36,0,0,0-1.06-1.17c-.47-.12-.94.12-.82.7A1.77,1.77,0,0,0,334.39,318.75Z"/><path class="cls-18" d="M330.16,317.58c.47.12.94-.12.82-.7a1.36,1.36,0,0,0-1.06-1.17c-.47-.12-.94.12-.82.7A1.36,1.36,0,0,0,330.16,317.58Z"/><path class="cls-18" d="M338.5,316.52c.47.12.94-.12.82-.7a1.36,1.36,0,0,0-1.06-1.17c-.47-.12-.94.12-.82.7A1.38,1.38,0,0,0,338.5,316.52Z"/><path class="cls-18" d="M334.16,315.23c.47.12.94-.12.82-.7a1.36,1.36,0,0,0-1.06-1.17c-.47-.12-.94.12-.82.7A1.55,1.55,0,0,0,334.16,315.23Z"/><path class="cls-18" d="M329.81,314.05c.47.12.94-.12.82-.7a1.36,1.36,0,0,0-1.06-1.17c-.47-.12-.94.12-.82.7A1.77,1.77,0,0,0,329.81,314.05Z"/><path class="cls-18" d="M338.27,313c.47.12.94-.12.82-.7a1.36,1.36,0,0,0-1.06-1.17c-.47-.12-.94.12-.82.7A1.38,1.38,0,0,0,338.27,313Z"/><path class="cls-18" d="M333.92,311.82c.47.12.94-.12.82-.7a1.36,1.36,0,0,0-1.06-1.17c-.47-.12-.94.12-.82.7A2.06,2.06,0,0,0,333.92,311.82Z"/><path class="cls-18" d="M329.58,310.53c.47.12.94-.12.82-.7a1.36,1.36,0,0,0-1.06-1.17c-.47-.12-.94.12-.82.7A1.77,1.77,0,0,0,329.58,310.53Z"/><path class="cls-18" d="M387.94,289.28a.78.78,0,0,0,.59.47h0a.78.78,0,0,0,.59-.47l.94-4.46a14.12,14.12,0,0,1,4.46,6.58c.12.12.12.35.23.47a2.76,2.76,0,0,1,.23.94c0,.12.12.35.12.47.12.35.12.7.23,1.06,0,.12.12.35.12.47.12.35.12.82.23,1.17a1.06,1.06,0,0,0,.12.59c0,.47.12.82.12,1.29v4.93a17.65,17.65,0,0,1-.23,2.35h0l-2.11.7c-.12,0-.23.12-.47.12a61.12,61.12,0,0,1-7.63,1.76h0a140.57,140.57,0,0,1-23.37,1.88v-.23c0-.23.12-.35.23-.59v-.12c.12-.23.12-.47.23-.59s.12-.23.12-.35a2.18,2.18,0,0,0,.23-.82c0-.12.12-.35.12-.47s.12-.35.23-.59.12-.35.23-.59.12-.23.12-.35a7.18,7.18,0,0,1,.59-1.41c0-.12.12-.23.12-.35a22,22,0,0,1,1.41-2.94h0a42.66,42.66,0,0,1,8.45-11.86l.35-.35a28.13,28.13,0,0,1,11.51-6.69Z"/><path class="cls-18" d="M336.5,307.48c-.23,0-.47-.12-.7-.12s-.47-.12-.7-.12l-1.53-.35c-.12,0-.35-.12-.47-.12l-1.53-.35h-.23c-1.17-.35-2.35-.7-3.41-1.06-.12-.47-.12-1.06-.23-1.53v-.47a4,4,0,0,0-.12-1.17v-2.11a7.75,7.75,0,0,1,.12-1.64h0a83.61,83.61,0,0,1,4.34-19c.12.47.12.82.23,1.29a3.43,3.43,0,0,0,.23,1.06,61.12,61.12,0,0,0,1.76,7.63c0,.12,0,.12.12.23,3.41,11.27,8.81,17,11.62,19.37C342.61,308.54,339.44,308.07,336.5,307.48Z"/><path class="cls-18" d="M350.48,267.08c.12,2.47.23,12.92-6.93,20.2l-1.29,1.29-.23.23a20.07,20.07,0,0,1-1.64,1.29l-.12.12c-.59.35-1.17.7-1.88,1.06a.41.41,0,0,0-.23.12c-.47.23-1.06.47-1.53.7a63.09,63.09,0,0,1-3.41-14.91v-.35C333.92,275.42,339.21,267.67,350.48,267.08Z"/><path class="cls-18" d="M314.43,267.08a22,22,0,0,1,17.38,9.63,95.42,95.42,0,0,0-4.34,14.91c-.12,0-.12,0-.23-.12a.12.12,0,0,1-.12-.12,6.92,6.92,0,0,1-.94-.47h0C314.19,284.35,314.31,270,314.43,267.08Z"/><path class="cls-17" d="M374.43,298.67a2.48,2.48,0,0,0,2.47,2.47,2.47,2.47,0,1,0,0-4.93A2.48,2.48,0,0,0,374.43,298.67Zm2.47-1.29a1.29,1.29,0,1,1-1.29,1.29A1.3,1.3,0,0,1,376.9,297.38Z"/><path class="cls-6" d="M358.72,244,335,265.42s-3.11,1.31-1,6.5,6.62,17.82,7.21,20.25,17.48,37.45,17.48,37.45,4.51,17.53,18.66,17.14c3.54-.1,5-3.81,5-3.81S373,336.73,372,335s-3.52-5.38.18-3.47c3.55,1.82,6.48.51,3.33-2-2.71-2.2-7.95-2.92-7.95-2.92S352.68,276,354.19,273.71,371.11,258,371.11,258,371.38,247.37,358.72,244Z"/><path class="cls-14" d="M374.58,224.85h0a10.06,10.06,0,0,1,10.06,10.06v23.32a0,0,0,0,1,0,0H364.51a0,0,0,0,1,0,0V234.92A10.06,10.06,0,0,1,374.58,224.85Z" transform="translate(307.78 -199.13) rotate(48.56)"/><g class="cls-19"><polygon class="cls-20" points="853.99 616.23 89.34 616.23 89.34 460.84 854.26 464 853.99 616.23"/><path class="cls-21" d="M792.12,593.94c-1.36-19.07-13.76-36.73-37.62-42.53-33-8-63.32-22.21-95.95-30.52-25.25-6.44-59.55-11.17-85.79-9.27-15.93,1.15-39.07,14-34.09,33,4.3,16.39,30.42,24.05,43,32.11,22.12,14.15,39.8,32.88,63.44,45.09,36.25,18.73,79.6,46.31,119.59,22.47C784.19,632.7,793.45,612.64,792.12,593.94Z"/><path class="cls-22" d="M645.13,621.84c-23.64-12.21-41.33-30.94-63.44-45.09-12.59-8.06-38.71-15.72-43-32.11A19.34,19.34,0,0,1,538.8,534c44.72,4.52,88.71,16.15,131.07,30.85a1091.17,1091.17,0,0,1,119.34,50,56.15,56.15,0,0,1-24.5,29.42C724.73,668.15,681.38,640.57,645.13,621.84Z"/><path class="cls-23" d="M650,624.41l-3.67-1.92c26.28-10.61,50.94-25.84,78.53-33q-23.06-9.18-46.44-17.46l-.42.15a105.85,105.85,0,0,0-10.28,4.44c-9.85,4.69-19.44,9.94-29,15.22-7.07,3.91-14.16,7.84-21.21,11.85l-2.8-2.17c8.53-4.89,17.15-9.63,25.73-14.35,9.81-5.4,19.68-10.75,29.89-15.38.61-.28,1.76-.87,3.15-1.51q-8.18-2.87-16.39-5.66a1.29,1.29,0,0,1-1.28-.38l-.07-.07q-11.77-4-23.62-7.75c-11.69,2.37-22.62,7.86-33.14,13.28-5.2,2.68-10.35,5.48-15.52,8.22l-1.81-1.18c-.48-.31-1-.62-1.51-.93,14.93-8.08,29.75-17,45.94-21.34q-15.31-4.85-30.71-9.43l-.74-.22c-12.69,4.66-23.54,12.65-34.25,20.84q-1.57-.84-3.12-1.72c10.21-7.81,20.47-15.55,32.24-20.6A220.53,220.53,0,0,0,560.84,537c-6.87,3.86-13.81,7.58-20.78,11.24a19.16,19.16,0,0,1-1.2-3q8.29-4.36,16.51-8.87a129.75,129.75,0,0,0-17-.7,18.83,18.83,0,0,1,.59-2.22q.76-1.38,1.59-2.72c13.27-.06,26,1.92,38.76,4.94-5.84-7.31-12.38-14.09-18-21.57q1.63-.57,3.25-1c6,7.95,13.18,15.11,19.22,23.05a1.6,1.6,0,0,1,.32.74q2.68.69,5.37,1.42c7.07,1.93,14.12,4,21.15,6.15-9.39-11-17.87-22.94-28-33.23,1.49,0,3,0,4.52,0,10.45,11.07,19.29,23.67,29.43,35.05,10.69,3.33,21.33,6.81,31.94,10.29a195,195,0,0,1-19.23-26.36,165.61,165.61,0,0,1-9.21-16.56l3.91.53c2.42,4.89,5.19,9.6,7.9,14a177.09,177.09,0,0,0,22.93,30.42l.54.18q13.65,4.47,27.24,9.14a3.18,3.18,0,0,1,.87.3q8.06,2.78,16.11,5.61a255.66,255.66,0,0,0-24.62-40c-2.64-3.57-5.4-7.2-8.32-10.78q2.7.77,5.39,1.58c1.64,2.08,3.24,4.16,4.8,6.23a249.4,249.4,0,0,1,27.09,44.47q21.31,7.61,42.37,15.83c-4.5-7.08-9-14.17-13-21.53-5.46-9.93-10.81-19.91-16.43-29.75l4.69,1.61c4.28,7.54,8.43,15.16,12.55,22.79,5.37,9.92,11.4,19.38,17.39,28.91q11.76,4.64,23.42,9.51c-2.92-16.26-6.78-32.32-11.14-48.26q2,.86,3.88,1.85c4.27,15.82,8,31.77,10.85,47.9,4.13,1.74,86.24,38,90.34,39.77-.63,2.61-3.14,7.15-4.17,9.68-7.17-3.37-90.66-43.16-97.87-46.42-22,13.21-43.14,27.72-64.91,41.25q-2-.64-4-1.34c21.95-13.54,43.21-28.18,65.28-41.53-8.35-3.74-16.75-7.39-25.21-10.87q-3.89-1.6-7.8-3.17C701.74,597.88,676.65,613.27,650,624.41Z"/><path class="cls-24" d="M420.47,550.63c-5.09-4.58-11.38-13.93-15.28-20.13,1.83-4.2,4.05-8.78,6.58-13.51,5.69,10.5,13.56,21.52,23.63,27.26,11.49,6.56,1.68-4.83-1.84-8.45a103.18,103.18,0,0,1-11.1-13.58c-.4-.58-4.91-7.49-7.15-11.61,3-5.24,6.39-10.52,9.95-15.53,4.17,8.81,20.2,31,23.65,31.26-.36-3.56-11.5-13.41-20.72-35.26a125.61,125.61,0,0,1,9.7-11.44c5.53,14.86,10.31,22.92,14.17,19.69,4.35-3.64-7.43-14.78-8.5-25.05,10.42-8.89,21.1-12.58,30.12-5.48a87.4,87.4,0,0,1,20,23c-1.37,5.46-5.78,15.91-20,26.63,0,0,15.27-2.55,23.94-19.66a110.28,110.28,0,0,1,9.69,27c-15.91,13.68-32.69,14-32.69,14,15.78.16,26.84-4.44,33.69-8.72a91.91,91.91,0,0,1,1.2,16.18,114.58,114.58,0,0,1-24.24,8.91s14.38-.95,24-4.2a67.14,67.14,0,0,1-4.24,19.3c-5.55,14.25-19,34-37.28,30.77-8.87-1.54-11.8-10.83-14.88-17.4-1.43-3-3-6-5.4-7.66a8.43,8.43,0,0,0-7-1c-11,2.6-21.07,5.48-30.67-2.48-7.34-6.09-11.17-16.55-10.09-25.93.36-3.17,1.83-8,4.16-13.71C415.28,553.94,427.61,557.05,420.47,550.63Z"/><path class="cls-22" d="M420.47,550.63c-5.09-4.58-11.38-13.93-15.28-20.13,1.83-4.2,4.05-8.78,6.58-13.5,5.69,10.5,13.56,21.51,23.63,27.26,11.49,6.56,1.68-4.83-1.84-8.45a103.18,103.18,0,0,1-11.1-13.58c-.4-.58-4.91-7.49-7.15-11.61,3-5.24,6.39-10.52,9.95-15.53,4.17,8.81,20.2,31,23.65,31.26-.36-3.56-11.5-13.41-20.72-35.25a125.54,125.54,0,0,1,9.7-11.44c5.53,14.86,10.31,22.92,14.17,19.69,4.35-3.64-7.42-14.78-8.5-25,6.47-5.52,13-9,19.25-9.21,2.9,24.36.14,49.33-5.44,73.11a328.56,328.56,0,0,1-11.42,38,9.08,9.08,0,0,0-5.58-.22c-11,2.6-21.07,5.48-30.67-2.48-7.34-6.09-11.17-16.55-10.09-25.93.36-3.17,1.84-8,4.16-13.71C415.28,553.94,427.61,557.05,420.47,550.63Z"/><path class="cls-24" d="M511,554.08c-8.32-.69-21.32-5.11-29.69-8.25-1.32-5.43-2.55-11.51-3.59-18,13.27,6,29,10.86,43.05,9,16-2.12-1.94-5.93-8-6.84a125.79,125.79,0,0,1-20.79-5c-.81-.27-10.29-3.64-15.51-6-.92-7.32-1.57-14.92-1.81-22.41,10.55,5.47,42.5,15.18,46,12.87-3-3.19-21.06-4.52-46.13-18.91a153.13,153.13,0,0,1,1-18.26c16.34,10.33,26.92,14.62,28.28,8.64,1.53-6.75-18.12-8.86-26.74-18,3.54-16.32,11.19-27.78,25.17-27.55A106.55,106.55,0,0,1,538.53,443c2.7,6.31,6.14,19.7.24,40.61,0,0,12.93-13.74,8.71-36.74a134.44,134.44,0,0,1,29.32,19c-5.33,25-21.36,37.74-21.36,37.74,15.42-11.49,22.76-24.11,26.26-33.33a112,112,0,0,1,13.11,14.81,139.68,139.68,0,0,1-16.94,26.54s13.26-11.54,20.2-21.81a81.85,81.85,0,0,1,10.13,21.85c5.13,17.92,6.67,46.94-13.45,57.37-9.74,5.06-19.44-1.8-27.28-5.89-3.63-1.9-7.33-3.63-10.9-3.44-2.63.14-5.18,1.32-7.58,4.23-8.71,10.61-16.39,20.87-31.59,20.23-11.62-.49-23-7.81-28.93-17.71-2-3.35-4.11-9.1-6.09-16.37C508.38,561.12,522.64,555,511,554.08Z"/><path class="cls-22" d="M511,554.08c-8.32-.69-21.32-5.12-29.69-8.25-1.32-5.43-2.55-11.51-3.59-18,13.27,6,29,10.86,43,9,16-2.12-1.94-5.93-8-6.84a125.79,125.79,0,0,1-20.79-5c-.81-.27-10.29-3.64-15.51-6-.92-7.32-1.57-14.92-1.81-22.41,10.55,5.47,42.5,15.18,46,12.87-3-3.18-21.05-4.52-46.12-18.9a153,153,0,0,1,1-18.26C491.81,482.68,502.4,487,503.75,481c1.54-6.75-18.11-8.86-26.73-18,2.2-10.13,6-18.4,11.88-23.15,20.8,21.49,36.55,47.76,48.69,74.95a400.53,400.53,0,0,1,17,45.29A11.07,11.07,0,0,0,549,564c-8.71,10.61-16.39,20.87-31.59,20.23-11.62-.49-23-7.81-28.93-17.71-2-3.35-4.11-9.1-6.08-16.37C508.38,561.12,522.64,555,511,554.08Z"/><path class="cls-25" d="M826.39,400.39c0-2-.91-6.28.25-7.94a34.71,34.71,0,0,0-5.83,15.18c-.4,3.08-1.13,8.88.34,11.64a3.27,3.27,0,0,0,1.31,1.53q-1.19,8.39-2.5,16.77a46.58,46.58,0,0,0-1.27-5.77,5.45,5.45,0,0,0,.24-1.85c0-6.82-5.25-13.46-10.34-17.47,1.91,5.27,4.27,10.45,6.49,15.59.63,1.45,1.94,3.81,2.86,4.18.84,3.17,1.64,6.33,1.25,9.65a.34.34,0,0,0,0,.22q-1.14,7.06-2.4,14.11c-.35-2.24-1-4.45-1.43-6.67a4.71,4.71,0,0,0,.7-1.19c1.18-2.72,0-8.14-.58-11a32.81,32.81,0,0,0-6.68-13.88c1.22,1.48.69,5.58.85,7.47.27,3.26.75,6.5,1.13,9.75.16,1.32,1.81,9.43,3.81,9.32.67,3.07,1.57,6.13,1.65,9.27q-1.2,6.59-2.5,13.16a90,90,0,0,0-1.15-9,8.34,8.34,0,0,0,.68-3.19c.85-11.28-7.08-22.9-15-30.13,2.54,8.94,5.82,17.78,8.88,26.55,1,2.75,3.2,7.47,4.72,7.36a80,80,0,0,1,1.22,11.77q-1.06,5.22-2.19,10.42a69.65,69.65,0,0,0-1.39-7.58c.54-.42.89-1.65.9-4.09,0-12.42-9.55-24.51-18.83-31.81,3.48,9.59,7.77,19,11.81,28.38,1.16,2.68,3.6,7.06,5.28,7.64a63.59,63.59,0,0,1,1.64,10.15q-1.39,6.26-2.9,12.5a33.66,33.66,0,0,0-1.39-9.2,4.72,4.72,0,0,0,.73-2.3c.49-4-3.07-10.59-5-14.08a44.45,44.45,0,0,0-14-15.45c2.15,1.45,3,7,4,9.37,1.61,4.13,3.47,8.15,5.22,12.22.69,1.61,5.69,11,8.31,10.68a36.44,36.44,0,0,1,1.23,12.44q-1.07,4.33-2.22,8.65a34.44,34.44,0,0,0-.53-6.18,5.25,5.25,0,0,0,.73-2.39c.53-4.25-3.25-11.3-5.27-15a47.4,47.4,0,0,0-14.88-16.51c2.29,1.55,3.22,7.46,4.21,10,1.7,4.41,3.67,8.7,5.53,13,.74,1.73,6.15,12,8.92,11.4.62-.12.17,9.67-.06,10.67-1,4.19-2.3,8.36-3.57,12.47,0-7.37,2.75-13.92-1-20.74a70.07,70.07,0,0,0-14-18.07,61,61,0,0,0-12-8.17c3.21,2.48,4.17,6.5,5.89,10,2.49,5,5.57,9.77,8.49,14.55a75.43,75.43,0,0,0,5.59,7.66c1.94,2.44,5.84,4,6.39,7.14,1.13,6.26-1.17,13.85-3.19,19.7.24-7.7.73-15-3.39-21.84A82,82,0,0,0,776.8,503.1a80.17,80.17,0,0,0-12.85-9c3.67,3.08,5.21,7.52,7.68,11.49,3.16,5.05,6.61,10,10.15,14.81a79.32,79.32,0,0,0,6.79,7.9c2.12,2.19,5.59,3,6.42,6,1.61,5.88-.59,12.56-2.39,18.11.38-7.94,0-13.27-4.69-20a106.35,106.35,0,0,0-17.26-19.67,93.07,93.07,0,0,0-13.81-9.56c3.55,2.5,5.27,6.85,7.29,10.53,2.8,5.12,6.37,9.87,9.69,14.66,4.1,5.9,8.38,11.93,14,16.52,1,.85,2.83,1.28,3.57,2.28,1.58,2.09.13,7.15-.36,9.43.35-5.55-3.78-8.81-7.59-12.3a54.93,54.93,0,0,0-16.68-10.16c-5.14-2.07-10.34-2.63-15.83-2.82a114.79,114.79,0,0,1,20.79,15.5c4.72,4.54,11.07,11.51,18.4,9.19.87,5.62-3.5,12.9-5.54,18-1.61,4-3.65,8-5.39,12.08q1.12.78,2.23,1.58c2-4.48,3.65-9.3,5.39-13.71,2.06-5.21,3.66-13.19,8.57-16.57,4.45,6.49,14.4,3.27,20.51,1.55,8.33-2.34,17.41-3.24,26-3.75a49.63,49.63,0,0,0-28.63-5.4,47,47,0,0,0-13.73,3.58c-3.06,1.33-5,3.51-7.26,6a31.87,31.87,0,0,1,6.88-10.65c2.48,3.67,12.14-1.55,14.9-2.82a123.78,123.78,0,0,0,21.74-12.69c3.56-2.64,6.54-5.54,11-6.55a69.05,69.05,0,0,0-26.31,4.88c-6.34,2.58-14.17,5.92-18.67,11.25-2.94,3.47-5.15,7.69-7.76,11.42,2.13-6.5,3.92-12.65,8.3-18,1.33-1.64,3.22-4.64,5.46-5.1,1.33-.27,2.66.33,4.09,0,8.65-2,16.72-7.78,24.15-12.28,4.27-2.59,7.77-6.73,12.8-7.81a59.84,59.84,0,0,0-25.08,5.11c-6.5,3-12.68,6-16.55,12.19a116.35,116.35,0,0,1-8.44,11.42c1.92-6.43,3.22-13.17,7.31-18.65,1.29-1.72,3-4.46,5.3-5,1.3-.29,2.39.14,3.8-.36,8.23-2.95,15.56-9.57,22.15-15,3.74-3.07,6.91-8,11.68-9.44a60,60,0,0,0-23.35,7.92c-5.89,3.55-11.51,7.44-14.62,13.64-1.94,3.88-5,7.11-7.55,10.61,1.1-4.54,1.77-9,3.94-13.16.56-1.08,7.75-13,8.39-12.4,2.23,2,12.52-4.76,14.1-6,3.93-3.08,7.95-6.06,11.77-9.27,2.21-1.86,6.09-6.85,9-7.13a50.14,50.14,0,0,0-22.2,7.71c-3.77,2.42-10.86,7-12.54,11.24a5.4,5.4,0,0,0-.53,2.64,50.92,50.92,0,0,0-8.11,11.62q1.75-7.08,3.34-14.21a.44.44,0,0,0,.11-.14A67.54,67.54,0,0,1,817,484c1,1.5,6.25-1.74,8.9-3.81,8-6.28,16.32-12.5,24-19.24-11.64,2-25.86,8-31.77,18.89a11.28,11.28,0,0,0-1.2,2.9,63,63,0,0,0-5.52,8.69q1.29-5.88,2.48-11.79a43.43,43.43,0,0,1,4.38-7.39c1.62.63,6.24-2.72,8.64-4.89,7.9-7.14,16.07-14.23,23.53-21.83-12,2.91-26.34,10.23-31.68,22-.91,2-1.19,3.29-1,4a43.86,43.86,0,0,0-3.24,5q1-5.11,2-10.23a78.93,78.93,0,0,1,4-9c2.32,1.43,9.59-7.17,10.64-8.65,2.58-3.63,5.26-7.19,7.72-10.91,1.42-2.15,3.47-7.41,5.9-8.37a44.72,44.72,0,0,0-17,12.22c-2.61,3-7.52,8.77-7.88,12.79a5.54,5.54,0,0,0,.13,2.16,52.85,52.85,0,0,0-2.74,5.73q1-5.83,2-11.68c1.13-3.28,3.11-6.15,4.81-9.16,1.72.84,7.31-6.23,8.29-7.6a76.6,76.6,0,0,1,11.65-12.54,7.12,7.12,0,0,0-1.75-.66,4,4,0,0,0-1.56-.1c-5.7,1-16.61,10.84-17.13,19.17a4.51,4.51,0,0,0,0,.85c-1.22,2.24-2.62,4.38-3.77,6.63.18-1.13.37-2.26.55-3.39q.94-5.92,1.82-11.86a30.76,30.76,0,0,1,3.41-5.83c1.09-.12,3.1-1.4,4.24-2.29,4.41-3.45,9-6.86,13.17-10.57-6.39,1.08-14.2,4.38-17.45,10.37a3.84,3.84,0,0,0-.68,2.07c-.79,1.16-1.58,2.32-2.27,3.52q.37-2.52.73-5l.64-1.23c1.6,1,5.27-5.66,5.77-6.75,1.18-2.62,2.43-5.21,3.52-7.87.63-1.54,1.27-5.12,2.69-6a28.87,28.87,0,0,0-9.26,9.87c-.27.47-.59,1-.92,1.65.23-1.44.35-2.65.36-3.11C826.17,407.3,826.39,403.85,826.39,400.39Z"/><path class="cls-26" d="M274,435.79c6.46,6.37,14.51,11.33,22.22,16.16a52,52,0,0,1,0-11,1.37,1.37,0,0,1,0-.16c-2.05-6.57-2.31-13.64-4.4-20.21-.41-1.29,1.55-2.09,2-.79,2.35,7.38,2.38,15.42,5.25,22.63a1,1,0,0,1-.95,1.43,51.73,51.73,0,0,0,.46,9.69.79.79,0,0,1,.06.41c.3,2,.7,4,1.19,6,6.6-9.73,11.08-20.72,17.93-30.31.79-1.11,2.44.21,1.65,1.32-7.16,10-11.74,21.61-18.86,31.67a100.33,100.33,0,0,0,4.26,11.79c2.45-10.71,10.95-18.41,17.32-27.07.81-1.1,2.46.22,1.65,1.32-6.69,9.08-16,17.12-17.39,28.94a.88.88,0,0,1-.07.25c1.16,2.54,2.37,5,3.61,7.52l-1.89.9c-1.44-2.89-2.85-5.82-4.17-8.79-7.64-7.42-13.83-16.78-23-22.4-1.16-.71.17-2.35,1.32-1.65,7.73,4.73,13.33,12.1,19.46,18.74a81.44,81.44,0,0,1-5-17.59c-8.2-5.17-17-10.37-23.88-17.21C271.73,436.49,273,434.83,274,435.79Z"/><path class="cls-4" d="M316.67,423.71h0a12.47,12.47,0,0,0-2.33,7.46,10.12,10.12,0,0,0,.42,3.07c1.75,5.42,8.44-4.27,9-6.7v0a12.46,12.46,0,0,0,7.46,2.33,10,10,0,0,0,3.07-.42c5.42-1.75-4.27-8.44-6.7-9h0a12.46,12.46,0,0,0,2.33-7.46,10.06,10.06,0,0,0-.43-3.07c-1.75-5.42-8.44,4.27-9,6.7v0a12.46,12.46,0,0,0-7.46-2.33,10,10,0,0,0-3.07.42C304.54,416.42,314.23,423.11,316.67,423.71Zm4-1.26a4.65,4.65,0,0,0,1.06-1.89,4.65,4.65,0,0,0,1.89,1.06,4.66,4.66,0,0,0-1.06,1.89A4.67,4.67,0,0,0,320.69,422.45Z"/><path class="cls-4" d="M267.6,432.84h0a12.46,12.46,0,0,0-2.33,7.46,10.11,10.11,0,0,0,.42,3.07c1.75,5.42,8.44-4.27,9-6.7v0a12.46,12.46,0,0,0,7.46,2.33,10,10,0,0,0,3.07-.42c5.42-1.75-4.27-8.44-6.7-9h0A12.46,12.46,0,0,0,280.9,422a10.05,10.05,0,0,0-.42-3.07c-1.75-5.43-8.44,4.27-9,6.7v0a12.48,12.48,0,0,0-7.46-2.33,10,10,0,0,0-3.07.42C255.47,425.55,265.16,432.24,267.6,432.84Zm4-1.26a4.66,4.66,0,0,0,1.06-1.89,4.66,4.66,0,0,0,1.89,1.06,4.69,4.69,0,0,0-1.06,1.89A4.65,4.65,0,0,0,271.62,431.59Z"/><path class="cls-4" d="M297.74,443.8l0,0a10.78,10.78,0,0,0,3.34,5.88,8.74,8.74,0,0,0,2.19,1.54c4.46,2.1,2.29-7.85,1.11-9.67v0a10.78,10.78,0,0,0,5.88-3.34,8.62,8.62,0,0,0,1.54-2.19c2.1-4.46-7.85-2.29-9.67-1.11l0,0a10.79,10.79,0,0,0-3.34-5.88,8.75,8.75,0,0,0-2.19-1.54c-4.46-2.1-2.29,7.85-1.11,9.67l0,0a10.79,10.79,0,0,0-5.88,3.34,8.67,8.67,0,0,0-1.55,2.19C286,447.14,295.92,445,297.74,443.8Zm1.59-3.29a4,4,0,0,0-.56-1.79,4,4,0,0,0,1.79-.56,4,4,0,0,0,.56,1.79A4,4,0,0,0,299.33,440.51Z"/><path class="cls-4" d="M319.7,447.65h0a9.8,9.8,0,0,0-.58,6.12,8,8,0,0,0,.83,2.29c2.23,3.89,5.8-4.66,5.87-6.63a.07.07,0,0,0,0,0A9.81,9.81,0,0,0,332,450a7.85,7.85,0,0,0,2.29-.83c3.89-2.23-4.66-5.8-6.63-5.87h0a9.82,9.82,0,0,0,.58-6.12,7.93,7.93,0,0,0-.83-2.29c-2.23-3.89-5.8,4.66-5.87,6.63a.17.17,0,0,0,0,0,9.8,9.8,0,0,0-6.12-.58,7.83,7.83,0,0,0-2.29.83C309.18,444,317.73,447.59,319.7,447.65Zm2.9-1.62a3.65,3.65,0,0,0,.51-1.63,3.65,3.65,0,0,0,1.63.51,3.69,3.69,0,0,0-.51,1.63A3.65,3.65,0,0,0,322.6,446Z"/><path class="cls-4" d="M277.93,455.27h0a9.49,9.49,0,0,0,2.56,5.38,7.67,7.67,0,0,0,1.83,1.5c3.78,2.14,2.52-6.75,1.6-8.43v0a9.5,9.5,0,0,0,5.38-2.56,7.65,7.65,0,0,0,1.5-1.83c2.13-3.78-6.75-2.52-8.43-1.6h0a9.49,9.49,0,0,0-2.56-5.38,7.61,7.61,0,0,0-1.83-1.5c-3.79-2.13-2.52,6.75-1.6,8.43v0a9.52,9.52,0,0,0-5.38,2.56,7.67,7.67,0,0,0-1.5,1.82C267.37,457.46,276.26,456.19,277.93,455.27Zm1.61-2.79a3.56,3.56,0,0,0-.38-1.61,3.54,3.54,0,0,0,1.61-.38,3.54,3.54,0,0,0,.38,1.61A3.53,3.53,0,0,0,279.54,452.48Z"/><path class="cls-4" d="M294.51,423.25v0a12.47,12.47,0,0,0,6.74,4,10.1,10.1,0,0,0,3.08.28c5.68-.47-2.24-9.18-4.48-10.33h0a12.45,12.45,0,0,0,4-6.74,10,10,0,0,0,.28-3.08c-.47-5.68-9.18,2.24-10.32,4.48l0,0a12.45,12.45,0,0,0-6.74-4,10.06,10.06,0,0,0-3.08-.28c-5.68.47,2.24,9.18,4.48,10.33h0a12.47,12.47,0,0,0-4,6.74,10,10,0,0,0-.28,3.08C284.66,433.41,293.37,425.48,294.51,423.25ZM294.2,419a4.65,4.65,0,0,0-1.6-1.46,4.65,4.65,0,0,0,1.46-1.6,4.64,4.64,0,0,0,1.6,1.46A4.66,4.66,0,0,0,294.2,419Z"/><path class="cls-22" d="M415.46,505.19c11-21.76,31.16-62.33-1.27-64.61-31.39-2.2-105.49,32.94-115.07,69.72-7.76,29.8,43.18,82.43,72.76,56.61C390.43,550.7,404.72,526.45,415.46,505.19Z"/><path class="cls-24" d="M427.56,445.81c11.58,12.07-3.24,41.84-12.1,59.38-10.74,21.26-25,45.52-43.58,61.72-15.76,13.76-37.57,5.25-53.34-10.21A897.85,897.85,0,0,1,427.56,445.81Z"/><path class="cls-21" d="M241.79,466.33a94.08,94.08,0,0,0-5.79,8.53c9.28,4.2,27.82,13.43,23.07,22-2.77,5-18.56-6-27.94-13.2-2.37,4.65-4.47,9.33-6.32,13.72,8.06,2.91,41.93,15.92,38,27.62-4.15,12.3-21.88-18-43.07-14.76a127.08,127.08,0,0,0-5.15,17.25c.1,0,46.75,8.06,43.24,20.16-3,10.5-29.87-1.32-44.91-8.9,0,.5-.07,1-.09,1.49a38.55,38.55,0,0,0,3.39,18.33c13.84-.57,36-.31,36.72,7.1,1.68,16.31-19.56.87-34.57-3.18,11.8,18.61,40,24.7,62.09,23.51,11.52-.62,22.68-3.28,31.68-8.24-8.74,1.79-21.72,3-20.79-5.84,1.16-11.11,16.06-2,27.59,1.29a36.07,36.07,0,0,0,9.58-11.6,40.46,40.46,0,0,0,4-13.26,62.72,62.72,0,0,1-11.58,7.51c-3.84,1.92-22.28,5.71-21.86-3.5.17-3.81,9.89-5.26,13-6.36,5.52-1.94,13.71-2.94,20.89-4.87A77.52,77.52,0,0,0,330.8,524c-13.11,9.5-31,13.64-32.25,10.85-1.57-3.38,16.26-10.67,29.37-20.95-1-3-2.09-5.86-3.21-8.57-1.41-3.39-3-6.81-4.64-10.22-8.11,13.66-23.82,26.65-28.49,21-6.18-7.44,10.89-24.75,21.16-34a102.62,102.62,0,0,0-9.94-13.17c-6.81,13.4-15.47,28.52-18.22,24.78s5.51-18.42,13-30.14a67.69,67.69,0,0,0-9.41-7.34c-2.88,11.41-11.92,19.15-15,16.5-4.17-3.54,4-11.08,8.12-20.32-12.84-5.86-23.63-2-32.54,6.27,5.27,5.74,12.95,14.93,9.25,16.17C254.42,476,246.77,470.43,241.79,466.33ZM289,543.41c-.94-1.17-.43-2.8.59-4,1.27-1.44,3.33-2.16,4.39-.38C295.36,541.45,291.11,546.07,289,543.41ZM263.4,567.28c.75-1.3,2.46-1.41,3.91-.87,1.8.67,3.21,2.33,1.93,4C267.53,572.56,261.69,570.25,263.4,567.28Zm.4-19.58c3.54-1.77,13.06,4.52,11.71,6.68-.4.64-2.14,1.89-4.91,1.48S257.05,551.09,263.8,547.71ZM267,529c1.67-1.21,3.88-.4,5.4,1.1,1.89,1.84,2.73,4.72.21,6.06C269.2,537.9,263.16,531.73,267,529Z"/><path class="cls-22" d="M241.79,466.33a94.08,94.08,0,0,0-5.79,8.53c9.28,4.2,27.82,13.43,23.07,22-2.77,5-18.56-6-27.94-13.2-2.37,4.65-4.47,9.33-6.32,13.72,8.06,2.91,41.93,15.92,38,27.62-4.15,12.3-21.88-18-43.07-14.76a127.08,127.08,0,0,0-5.15,17.25c.1,0,46.75,8.06,43.24,20.16-3,10.5-29.87-1.32-44.91-8.9,0,.5-.07,1-.09,1.49a38.55,38.55,0,0,0,3.39,18.33c13.84-.57,36-.31,36.72,7.1,1.68,16.31-19.56.87-34.57-3.18,10.93,17.24,38.2,25.86,59.91,23.39,1.67-.19,5.71-28.27-1.43-69.21-2.49-14.25-5.3-28.44-9.05-42.41-1.87-7-3.94-13.87-6.15-20.73-.26-.82-.54-1.62-.81-2.43a35.08,35.08,0,0,0-12.15,7.66c5.27,5.74,12.95,14.93,9.25,16.17C254.42,476,246.77,470.43,241.79,466.33Zm21.6,101c.75-1.3,2.46-1.41,3.91-.87,1.8.67,3.21,2.33,1.93,4C267.53,572.56,261.69,570.25,263.4,567.28Zm.4-19.58c3.54-1.77,13.06,4.52,11.71,6.68-.4.64-2.14,1.89-4.91,1.48S257.05,551.09,263.8,547.71ZM267,529c1.67-1.21,3.88-.4,5.4,1.1,1.89,1.84,2.73,4.72.21,6.06C269.2,537.9,263.16,531.73,267,529Z"/><path class="cls-21" d="M203.72,454.42a72.27,72.27,0,0,0-7.86,1c2.28,7.49,6.35,22.87-1,24.45-4.28.92-5.93-13.77-6.54-22.81-3.89,1-7.65,2.15-11.12,3.31,2.4,6.13,12.06,32.27,3.31,35.92-9.2,3.84-.69-21.76-13.31-32.34a97.62,97.62,0,0,0-12.56,5.77c0,.07,19,31.07,10.28,35.17-7.6,3.56-14.38-17.91-17.62-30.43l-.91.7a29.61,29.61,0,0,0-8.86,11.25c7.35,7.7,18.4,20.59,14.51,24.79-8.56,9.24-10.41-10.85-15.69-21.57-4.76,16.24,6,35.62,17.9,47.76,6.2,6.34,13.39,11.43,20.82,14.11-5.46-4.13-12.74-11-7.17-15,7-5,9.28,8.27,13.24,16.58a27.71,27.71,0,0,0,11.55-.35,31.08,31.08,0,0,0,9.68-4.42,48.18,48.18,0,0,1-10.2-2.88c-3.05-1.25-14.59-10-9.06-14.4,2.29-1.83,8,3,10.25,4.27,3.92,2.2,8.64,6.42,13.4,9.59a59.55,59.55,0,0,0,8.77-9.88c-12.13-2.75-23.56-11-22.61-13.11,1.15-2.62,14.4,4,27,6.34,1.22-2.09,2.32-4.17,3.32-6.2,1.24-2.53,2.43-5.16,3.54-7.86-12,2.24-27.46-.24-26.58-5.78,1.16-7.34,19.81-6.26,30.38-5A78.83,78.83,0,0,0,233.14,491c-11.19,2.86-24.3,5.52-23.54,2s13.42-6.16,24-7.79A52,52,0,0,0,233,476c-8,4.12-17.1,2.83-17.15-.32-.07-4.2,8.44-3.29,15.85-5.61-3.13-10.38-10.83-14.65-20.11-15.6-.64,5.95-2.06,15-4.65,13.53S203.87,459.38,203.72,454.42Zm-20.59,66.3a2.39,2.39,0,0,1,2.59-1.67c1.47,0,2.93.82,2.44,2.34C187.51,523.42,182.68,523.31,183.13,520.72Zm-26.73-2.65a2.39,2.39,0,0,1,2.49,1.82c.53,1.38.28,3-1.31,3.12C155.45,523.12,153.82,518.58,156.39,518.07Zm11.51-9.69c2.82,1.14,4,9.83,2.08,10.15a4,4,0,0,1-3.35-2.08C165.51,514.71,162.53,506.19,167.9,508.38Zm12.42-7.68c1.55.35,2.19,2,2.11,3.68-.11,2-1.34,4-3.39,3.19C176.3,506.52,176.8,499.91,180.32,500.7Z"/><path class="cls-22" d="M203.72,454.42a72.27,72.27,0,0,0-7.86,1c2.28,7.49,6.35,22.87-1,24.45-4.28.92-5.93-13.77-6.54-22.81-3.89,1-7.65,2.15-11.12,3.31,2.4,6.13,12.06,32.27,3.31,35.92-9.2,3.84-.69-21.76-13.31-32.34a97.62,97.62,0,0,0-12.56,5.77c0,.07,19,31.07,10.28,35.17-7.6,3.56-14.38-17.91-17.62-30.43l-.91.7a29.61,29.61,0,0,0-8.86,11.25c7.35,7.7,18.4,20.59,14.51,24.79-8.56,9.24-10.41-10.85-15.69-21.57-4.41,15,4.43,35.15,16.86,46.44,1,.87,19.22-11,39.23-35.9,7-8.66,13.73-17.47,19.89-26.72q4.6-6.91,8.85-14.05c.34-.56.67-1.13,1-1.7a27,27,0,0,0-10.58-3.13c-.64,5.95-2.06,15-4.65,13.53S203.87,459.38,203.72,454.42Zm-47.33,63.64a2.39,2.39,0,0,1,2.49,1.82c.53,1.38.28,3-1.31,3.12C155.45,523.12,153.82,518.58,156.39,518.07Zm11.51-9.69c2.82,1.14,4,9.83,2.08,10.15a4,4,0,0,1-3.35-2.08C165.51,514.71,162.53,506.19,167.9,508.38Zm12.42-7.68c1.55.35,2.19,2,2.11,3.68-.11,2-1.34,4-3.39,3.19C176.3,506.52,176.8,499.91,180.32,500.7Z"/><path class="cls-21" d="M788.88,582.75c8.22-11,9.78-26.39-.44-40.74-14.14-19.86-23.93-41.78-37.73-61.61-10.68-15.35-27.07-34-42.2-45.31-9.19-6.86-27.8-10.72-34,1.92-5.36,10.91,5.22,27.33,8.26,37.62,5.36,18.07,6.16,36.53,13.26,54.26,10.88,27.18,21.45,62.5,54.34,68.34C766.38,600.05,780.83,593.52,788.88,582.75Z"/><path class="cls-22" d="M696,528.87c-7.09-17.73-7.9-36.19-13.26-54.26-3-10.28-13.62-26.71-8.26-37.62a13.87,13.87,0,0,1,5.06-5.71c22.14,23.45,40.55,50.42,56.64,78.28a783,783,0,0,1,41.27,83.18,40.29,40.29,0,0,1-27.11,4.46C717.47,591.38,706.9,556.06,696,528.87Z"/><path class="cls-23" d="M697.49,532.58l-1.09-2.77c19.24,6.59,39.77,9.9,58.1,19q-8.2-15.81-17-31.28l-.3-.12a76,76,0,0,0-7.67-2.42c-7.55-2.08-15.22-3.74-22.88-5.35-5.67-1.19-11.36-2.4-17.07-3.53q-.26-1.24-.5-2.49c6.92,1.35,13.83,2.83,20.7,4.29,7.85,1.68,15.73,3.41,23.44,5.69.46.14,1.36.35,2.42.66q-3.09-5.4-6.24-10.77a.93.93,0,0,1-.51-.81s0,0,0-.07q-4.52-7.68-9.18-15.29c-7.46-4.2-16-6.35-24.22-8.35-4.08-1-8.19-1.88-12.28-2.83-.14-.5-.28-1-.43-1.49s-.25-.8-.39-1.21c11.9,2.63,24.11,4.76,34.95,10q-6-9.82-12.23-19.53l-.3-.46c-9.07-3.43-18.71-4.19-28.37-4.78q-.46-1.2-.88-2.4c9.2.56,18.41,1.18,27.16,4a158.24,158.24,0,0,0-12.61-16.89c-5.54-1.13-11.05-2.37-16.55-3.66a13.75,13.75,0,0,1,.78-2.22q6.55,1.53,13.12,2.94a93.1,93.1,0,0,0-8.89-8.35,13.51,13.51,0,0,1,1.36-.93q1.06-.39,2.14-.73a117.45,117.45,0,0,1,18.71,20.88c.26-6.71-.11-13.46.38-20.14q1.15.45,2.25,1c-.46,7.15.06,14.39-.39,21.53a1.15,1.15,0,0,1-.17.55q1.13,1.63,2.25,3.29,4.39,6.56,8.59,13.27c.09-10.4,1.07-20.84.39-31.2q1.23,1,2.45,2.12c.47,10.91-.65,21.9-.49,32.84,4.24,6.82,8.38,13.71,12.5,20.58a139.94,139.94,0,0,1,1.94-23.33,118.83,118.83,0,0,1,2.78-13.31l1.87,2.12c-1,3.79-1.69,7.64-2.3,11.32A127.07,127.07,0,0,0,731,499.11l.21.35q5.31,8.84,10.49,17.75a2.28,2.28,0,0,1,.33.57q3.07,5.29,6.11,10.61a183.45,183.45,0,0,0,5.41-33.25c.24-3.17.45-6.45.55-9.75q1.11,1.69,2.18,3.39c-.09,1.9-.19,3.78-.32,5.63a179,179,0,0,1-6.18,36.85q8,14.13,15.56,28.48c.88-6,1.77-11.91,3-17.81,1.7-8,3.48-15.88,5.05-23.85l1.79,3.07c-1.22,6.1-2.55,12.18-3.89,18.26-1.74,7.9-2.91,15.87-4.13,23.85q4.2,8,8.24,16.16c6-10.19,11.5-20.72,16.61-31.42q.69,1.41,1.23,2.83c-5.11,10.59-10.56,21-16.6,31.09,1.42,2.88,29,61.1,30.35,64-1.56,1.12-5.06,2.41-6.81,3.3-2.31-5.19-28.93-66-31.31-71.14-18.13-3.15-36.42-5.21-54.59-8.09q-.78-1.28-1.53-2.59c18.27,3,36.68,5,54.92,8.11-2.78-6-5.62-11.87-8.58-17.74q-1.36-2.7-2.74-5.38C738,542.46,717.16,539,697.49,532.58Z"/><path class="cls-21" d="M638.54,523.64a50.43,50.43,0,0,1-7.81-4.09c-4.43-2.85-8.26-6.46-12.21-9.91-1.63-1.43-7.41-7.63-9.76-7.56a69.68,69.68,0,0,1,9.48.78,42.66,42.66,0,0,1,20,7.5c2.7,1.88,5.93,3.53,8.05,6.11.93,1.13,3.8,6.7,1.78,8C645.83,525.92,642.09,525.08,638.54,523.64Z"/><path class="cls-27" d="M665.67,509.68c3,3.5-.48,8.25-3.56,10.29,3.2,1.64,8.69-1.61,10.45,2.84,1.59,4-3.55,4.7-5.83,7,3.61,2.44,1.33,5.59-2.13,6-2.91.36-6.32-1.93-8.75-3.29.26,2.46,3.13,8.49.74,10.59-1.86,1.63-5.19-1.31-7.39-.64-2.93.89-6,4.41-8.39.61-1.86-2.95.7-8.36,1.28-11.39-2.45,2.05-6.58,6-10.11,4.3-3.07-1.48-2.52-4.62-.75-7.07-.78,1.09-6-5.07-4.93-7.51,2-4.35,10.75-2.22,14.19-1.72-2.29-.33-10.77-4.57-10.47-7.59.33-3.29,5.5-1.85,7.05-4.32,1.37-2.18-3.07-6.17,1.2-7.35,4-1.12,8.86,7.78,11.07,10.16-1.35-1.46,2.07-6.21,3.72-6.37,4.56-.44,2.6,4.84,4.9,7.08,2.55-2.26,3.81-4.89,6.79-2.54A6.36,6.36,0,0,1,665.67,509.68Z"/><path class="cls-4" d="M645.36,527.58c3.93,7,12.46-.1,8.79-5.52C649.11,514.61,641.76,521.17,645.36,527.58Z"/><path class="cls-21" d="M662.33,460.45a62.05,62.05,0,0,1,6-9c4.07-5,9-9.25,13.74-13.62,2-1.81,10.32-8.05,10.54-10.94a85.73,85.73,0,0,1-2.21,11.5,52.49,52.49,0,0,1-11.82,23.42c-2.66,3-5.11,6.79-8.54,9-1.51,1-8.7,3.76-10,1.12C658.58,469.08,660.1,464.61,662.33,460.45Z"/><path class="cls-27" d="M675.82,495.5c-4.68,3.15-10-1.68-12.11-5.72-2.43,3.7.81,10.85-4.86,12.41-5.14,1.41-5.28-5-7.8-8.06-3.46,4.09-7,.88-7.09-3.41-.06-3.61,3.2-7.48,5.18-10.26-3,0-10.8,2.71-13.05-.5-1.75-2.49,2.29-6.17,1.76-9-.71-3.7-4.6-7.93.37-10.35,3.85-1.88,10.14,2,13.77,3.07-2.18-3.26-6.47-8.85-3.92-12.94,2.21-3.57,6-2.46,8.75,0-1.23-1.1,7-6.72,9.83-5,5.05,3,1.29,13.45.23,17.59.71-2.76,7-12.56,10.67-11.8,4,.83,1.53,7,4.35,9.2,2.49,2,7.95-2.93,8.84,2.44.84,5.07-10.69,9.81-13.9,12.19,2-1.46,7.32,3.36,7.3,5.4-.06,5.64-6.27,2.54-9.31,5.06,2.43,3.41,5.48,5.3,2.2,8.64A7.83,7.83,0,0,1,675.82,495.5Z"/><path class="cls-4" d="M656.62,468.28c-9.07,3.88-1.53,15.26,5.58,11.49C672,474.58,664.93,464.72,656.62,468.28Z"/></g><path class="cls-25" d="M6.51,373.82C4.84,372.73.76,371.16,0,369.28a34.71,34.71,0,0,0,9.53,13.17c2.36,2,6.83,5.8,9.94,6.07a3.27,3.27,0,0,0,2-.26q6.38,5.57,12.68,11.25a46.58,46.58,0,0,0-5.53-2.09,5.45,5.45,0,0,0-1.42-1.21c-5.7-3.74-14.15-3-20.29-.88,5.46,1.27,11.08,2.13,16.6,3.07,1.56.27,4.25.45,5.06-.12,3.11,1,6.2,2.08,8.77,4.22a.34.34,0,0,0,.21.08q5.29,4.81,10.51,9.71c-2.07-.93-4.26-1.63-6.37-2.44a4.71,4.71,0,0,0-.62-1.23c-1.63-2.47-6.8-4.48-9.54-5.53a32.81,32.81,0,0,0-15.27-2c1.9-.22,5.06,2.47,6.72,3.37,2.88,1.55,5.85,2.92,8.79,4.37,1.19.59,8.89,3.63,9.89,1.89,2.93,1.12,6,2,8.67,3.68q4.87,4.6,9.66,9.28a90,90,0,0,0-8.13-3.93,8.34,8.34,0,0,0-2.3-2.31c-9-6.87-23.05-6.56-33.45-3.85,8.87,2.75,18.08,4.83,27.1,7.05,2.83.7,8,1.4,8.75.07a80,80,0,0,1,10.52,5.41q3.79,3.74,7.53,7.53a69.65,69.65,0,0,0-7.11-3c-.06-.68-.9-1.65-2.94-3-10.38-6.81-25.75-5.38-36.93-1.59,9.93,2.32,20.17,3.87,30.22,5.6,2.88.49,7.88.83,9.28-.26a63.59,63.59,0,0,1,9.4,4.16q4.49,4.58,8.89,9.26A33.66,33.66,0,0,0,72.35,441a4.72,4.72,0,0,0-1.53-1.87c-3.07-2.58-10.55-3.21-14.52-3.52a44.45,44.45,0,0,0-20.59,3.3c2.39-1,7.51,1.26,10,1.79,4.34.91,8.72,1.55,13.09,2.3,1.72.3,12.32,1.24,13.49-1.13a36.44,36.44,0,0,1,11.09,5.76q3,3.27,6,6.58A34.44,34.44,0,0,0,84,451.29a5.25,5.25,0,0,0-1.6-1.92c-3.27-2.76-11.24-3.45-15.47-3.79A47.4,47.4,0,0,0,45,449c2.55-1.07,8,1.37,10.68,1.93,4.62,1,9.3,1.67,13.95,2.49,1.86.33,13.37,1.38,14.42-1.25.23-.58,8.2,5.14,8.91,5.88,3,3.11,5.75,6.49,8.5,9.8-6.17-4-10.16-9.9-17.91-10.5a70.07,70.07,0,0,0-22.78,1.85,61,61,0,0,0-13.38,5.56c3.83-1.33,7.72.06,11.59.52,5.57.66,11.23.66,16.82.83a75.43,75.43,0,0,0,9.47-.5c3.1-.29,6.58-2.68,9.47-1.46,5.86,2.47,11,8.54,14.76,13.42-6.32-4.41-12.18-8.8-20.15-9.08a82,82,0,0,0-23.81,2.93,80.17,80.17,0,0,0-14.59,5.83c4.59-1.4,9.15-.26,13.82-.17,6,.11,12-.07,17.95-.42A79.32,79.32,0,0,0,93,475.31c3-.57,5.55-3.05,8.55-2.09,5.8,1.86,10.2,7.35,13.87,11.89-6.44-4.65-11.12-7.25-19.3-7a106.35,106.35,0,0,0-25.91,3.72,93.07,93.07,0,0,0-15.55,6.35c4-1.61,8.62-.68,12.8-.36,5.82.45,11.75.06,17.58-.12,7.18-.21,14.57-.51,21.47-2.7,1.28-.4,2.62-1.67,3.86-1.75,2.62-.18,6.06,3.8,7.7,5.45-4.46-3.32-9.45-1.64-14.45-.35A54.93,54.93,0,0,0,86,496.79C81.46,500,78.16,504,75,508.52a114.79,114.79,0,0,1,24.34-9c6.38-1.47,15.69-3,17.75-10.4,5.18,2.34,4.53,6.26,7.7,10.76,2.49,3.54,3.82,4.12,6.26,7.8.84-.34,7,6.35,7.82,6-2.64-4.14-5.8-8.13-8.55-12-3.24-4.57-9.05-10.27-9.2-16.23,7.86-.18,10.6-10.28,12.5-16.34,2.59-8.26,6.79-16.35,11.08-23.86a49.63,49.63,0,0,0-20.15,21A47,47,0,0,0,120,479.82c-.55,3.29.2,6.13,1,9.34a31.87,31.87,0,0,1-5.16-11.58c4.43-.07,5.33-11,5.78-14a123.78,123.78,0,0,0,1.24-25.14c-.27-4.42-1.07-8.51.52-12.79a69.05,69.05,0,0,0-10.27,24.7c-1.3,6.72-2.77,15.1-.77,21.78,1.31,4.36,3.63,8.51,5.33,12.73-4.29-5.33-8.45-10.19-10.58-16.8-.65-2-2.13-5.24-1.29-7.36.5-1.26,1.73-2,2.23-3.43,3-8.35,2.61-18.25,2.89-26.94.16-5-1.39-10.18.45-15A59.84,59.84,0,0,0,102,439.13c-1.06,7.07-1.91,13.9,1.18,20.53a116.35,116.35,0,0,1,5,13.3c-4.34-5.12-9.28-9.89-11.63-16.3-.74-2-2.08-5-1.26-7.15.47-1.25,1.43-1.92,1.77-3.38,2-8.51.48-18.26-.47-26.75-.53-4.81-2.9-10.14-1.53-14.94a60,60,0,0,0-6.12,23.89c-.24,6.87-.05,13.71,3.45,19.7,2.19,3.75,3.22,8.09,4.77,12.12-3.2-3.4-6.55-6.38-8.87-10.49-.6-1.06-6.65-13.58-5.81-13.8,2.9-.78,2.85-13.09,2.67-15.09-.43-5-.74-10-1.34-14.92-.35-2.87-2.42-8.84-1.06-11.43a50.14,50.14,0,0,0-5.66,22.81c0,4.48,0,12.94,2.57,16.64a5.4,5.4,0,0,0,1.92,1.88,50.92,50.92,0,0,0,5.31,13.14q-5-5.33-10.08-10.55a.44.44,0,0,0-.06-.17,67.54,67.54,0,0,1-5.33-10.86c1.81,0,2-6.18,1.67-9.54-.87-10.16-1.56-20.5-3-30.58-4.71,10.82-7.44,26-1.52,36.93a11.28,11.28,0,0,0,1.78,2.59,63,63,0,0,0,4.27,9.37q-4.23-4.29-8.53-8.51a43.43,43.43,0,0,1-3.8-7.7c1.42-1,1.13-6.71.62-9.91-1.67-10.52-3.15-21.23-5.44-31.63-4.1,11.62-5.81,27.65,1.17,38.58,1.19,1.87,2.11,2.79,2.79,3a43.86,43.86,0,0,0,2.45,5.46q-3.73-3.63-7.51-7.22A78.93,78.93,0,0,1,51,409.89c2.46-1.16-.78-12-1.44-13.63-1.63-4.15-3.15-8.34-4.93-12.43-1-2.36-4.31-7-3.8-9.51a44.72,44.72,0,0,0,.94,21c1.11,3.85,3.25,11.09,6.41,13.59a5.54,5.54,0,0,0,1.88,1.08,52.85,52.85,0,0,0,3.31,5.43q-4.32-4.06-8.68-8.07c-2.13-2.74-3.45-6-5.05-9,1.65-1-1.23-9.52-1.84-11.1a76.6,76.6,0,0,1-4.15-16.61,7.12,7.12,0,0,0-1.51,1.1,4,4,0,0,0-.94,1.25c-2.29,5.31,0,19.83,6.71,24.82a4.51,4.51,0,0,0,.72.45c1.21,2.24,2.23,4.59,3.5,6.78l-2.54-2.31q-4.45-4-8.95-8a30.76,30.76,0,0,1-3-6c.49-1,.52-3.36.39-4.8-.48-5.58-.86-11.26-1.66-16.8-2.59,5.94-4.09,14.29-.84,20.29.56,1,1,1.55,1.36,1.7.54,1.3,1.08,2.59,1.71,3.83l-3.81-3.35-.68-1.2c1.68-.81-1.86-7.51-2.51-8.52-1.55-2.42-3-4.88-4.67-7.25-.94-1.37-3.6-3.86-3.59-5.55a28.87,28.87,0,0,0,3.21,13.15c.25.48.55,1.06.88,1.67-1.08-1-2-1.74-2.4-2C12.18,377.78,9.4,375.72,6.51,373.82Z"/></g></g></svg>