<svg xmlns="http://www.w3.org/2000/svg" xmlns:xlink="http://www.w3.org/1999/xlink" viewBox="0 0 667.29 545.09"><defs><style>.cls-1,.cls-15,.cls-17,.cls-18,.cls-19,.cls-20,.cls-21,.cls-4{fill:none;}.cls-2{isolation:isolate;}.cls-3{fill:#f7ede8;}.cls-19,.cls-20,.cls-21,.cls-4{stroke:#efdbd3;}.cls-15,.cls-17,.cls-18,.cls-19,.cls-20,.cls-21,.cls-4,.cls-7{stroke-miterlimit:10;}.cls-4{stroke-width:1.3px;}.cls-13,.cls-15,.cls-19,.cls-20,.cls-21,.cls-4{mix-blend-mode:multiply;}.cls-5{clip-path:url(#clip-path);}.cls-6{fill:#fcdac8;}.cls-7,.cls-8{fill:#f7f5b5;}.cls-7{stroke:#f7e857;}.cls-15,.cls-7{stroke-width:0.72px;}.cls-9{fill:#efdbd3;}.cls-10{fill:#f2a5a5;}.cls-11{fill:#3d3d3d;}.cls-12{fill:#afa3e2;}.cls-14{fill:#fbd2ae;}.cls-15{stroke:#afa3e2;}.cls-16{fill:#1abc9c;}.cls-17,.cls-18{stroke:#aae8dc;}.cls-17{stroke-width:0.72px;}.cls-18{stroke-width:0.66px;}.cls-19{stroke-width:1.2px;}.cls-20{stroke-width:1.25px;}.cls-21{stroke-width:1.09px;}</style><clipPath id="clip-path"><path class="cls-1" d="M13.33,112.9C55.09,5.38,169.5-24.47,276.09,19.62c42.75,17.68,81.27,57.7,104.24,76.31,43.76,35.45,144.51,77.55,157.29,82.49C643,219.14,697.36,328.2,650.1,430.86c-44.08,95.75-156.51,140-254.45,98.85q-1.59-.67-3.17-1.36C343.74,506.87,289.47,502,237.15,512A196.53,196.53,0,0,1,5,299.63C7.79,272,7.44,244.09,2.78,216.7A195.39,195.39,0,0,1,13.33,112.9Z"/></clipPath></defs><title>Osta</title><g class="cls-2"><g id="Layer_1" data-name="Layer 1"><path class="cls-3" d="M13.33,112.9C55.09,5.38,169.5-24.47,276.09,19.62c42.75,17.68,81.27,57.7,104.24,76.31,43.76,35.45,144.51,77.55,157.29,82.49C643,219.14,697.36,328.2,650.1,430.86c-44.08,95.75-156.51,140-254.45,98.85q-1.59-.67-3.17-1.36C343.74,506.87,289.47,502,237.15,512A196.53,196.53,0,0,1,5,299.63C7.79,272,7.44,244.09,2.78,216.7A195.39,195.39,0,0,1,13.33,112.9Z"/><rect class="cls-4" x="381.68" y="111.13" width="108.92" height="151.63"/><rect class="cls-4" x="373.01" y="99.06" width="126.27" height="175.78"/><g class="cls-5"><path class="cls-6" d="M243.5,449.33c.07,0,42.39.53,46.11,0s5.32-5.31,8.51-6.38a37.36,37.36,0,0,1,8.22-1.27s26.15,2,25.81,6.79c-.36,5-4.13,11.23-15.73,14.38a8.25,8.25,0,0,1-2,.67l-77.49.7S230.6,449.15,243.5,449.33Z"/><path class="cls-7" d="M273.88,454.52l35.77-28.73a2.65,2.65,0,0,1,3.41.07l14.17,12.43a2.65,2.65,0,0,1-.1,4.07l-36.78,29.14a2.65,2.65,0,0,1-3.49-.18l-13.15-12.84A2.65,2.65,0,0,1,273.88,454.52Z"/><polygon class="cls-8" points="358.05 502.99 342.89 556.55 436.18 546.42 421.02 497.67 358.05 502.99"/><path class="cls-6" d="M279.68,447.34s3-3.85,6.08-5,8.87-1.51,8.87-1.51,2,2.3,0,3.56-6.89,2.52-7.61,3.86-2,7-5.11,8.09-7.11,0-7.11,0Z"/><path class="cls-9" d="M217.57-6.76v411.3L114,523.4S-9.28,491.93-9.28,507.59V66.94L73.57-15.91Z"/><path class="cls-6" d="M268.66,472.8l9.69,35.94H259.81l-7.61-30.33S259.56,469.16,268.66,472.8Z"/><path class="cls-10" d="M216.09,358.39s30,1.07,37.62,10.86c4,5.15,15.2,105.86,15.2,105.86s-14.56,6.07-17.59,4.85-11.88-65.28-11.88-65.28,9.09,11.64,3,24.38,6.32,74.09,6.32,74.09l-59.23,4.43c-.42,0-1.08-33.37-1.08-33.79V358.39Z"/><polygon class="cls-8" points="308.7 404.12 351.92 419.6 344.02 406.58 304.97 393.79 308.7 404.12"/><path class="cls-11" d="M363.36,256.67c-3.86,3-7.49,9.86-6.82,17.18,1.1,12.1-5.84,16.33-8.82,19.5-5.19,5.53-8.65,18.1-2.16,31.74s36.77,10.31,36.77,10.31h41.26s18.3-4.32,16.14-26.62S424,288.65,420.1,286c-15.95-10.77-6.12-17.72-11.65-27C397.8,241.25,367.3,253.58,363.36,256.67Z"/><path class="cls-6" d="M365.64,263.27l-7.57,35.12a.93.93,0,0,0,.91,1.13h3.45v12.53a4,4,0,0,0,4,4h14.2l.59,30.31-13.2,19.93,20.39,3.49,20.12-21.73V335.41l-18.72-50s3.59-4,4.61-5.5c2.69-3.89-.07-9.52-4.5-9.07l-3.77.34S375.73,272.69,365.64,263.27Z"/><path class="cls-12" d="M408.57,335.41s18.79,8.11,23.09,15.89,3.22,45.35,0,59.3-5.75,90.59-5.37,94.19c1.88,17.63-60.94-.53-68.46-1.86-5.49-1,10.24-59.33,9.16-73-.16-2,.22-4.72-1-7.3s-2.2-12.62-2.23-12.82c-2.54-15.54-4.32-34.14,4.31-43.47,3-3.21,19.86,1.55,32.74-15.29C404.79,345.82,408.57,335.41,408.57,335.41Z"/><path class="cls-6" d="M306.3,397.82,259,386.67s-7.65-14.65-10.16-16.13-3,4.47.09,9.63-14.29,1.83-21.56-8.26c-4.58-6.35-5.53,8.67-4.93,9.77s12.95,16.07,22.24,15.88,10.59,1.67,10.59,1.67l46.91,16.12S310.61,404.34,306.3,397.82Z"/><path class="cls-6" d="M331.34,389.64c-.75-.3-1.49-.58-1.68-.62-.92-.21-2.26,3.6,3.08,5.65l3.81,2.77a18.49,18.49,0,0,0,10.69,5.5l16.52,6.86-1.57-11.58-8.82-2.2-6.45-8.17s-13.39-7.74-17.45-6.15S318,389,318,389s.19,2.36,3.89.94a35,35,0,0,0,7.39-4.24l2.7,1.53S330.73,388.58,331.34,389.64Z"/><g class="cls-13"><path class="cls-14" d="M331.62,389.75q1.91.6,3.79,1.27a14.73,14.73,0,0,1,1.87.69,8.77,8.77,0,0,1,1.71,1.09l0,.07a8.74,8.74,0,0,1-2-.44,14.76,14.76,0,0,1-1.82-.83q-1.81-.86-3.58-1.77Z"/></g><path class="cls-12" d="M416.36,384.88S369,418.42,366.92,419.59c0,0-4.89,5.69-10.26,5.69-1.56,0-64.11-4.76-57-9.94S305,393.79,305,393.79l43.8,7.66a12.62,12.62,0,0,0,10.09-2.61l11.25-9.07s37.32-37.22,48.74-39.19c13.87-2.4,15.88,16.28,15.88,16.28"/><path class="cls-15" d="M390.21,370.92c10.76-9.55,22.94-19.35,28.65-20.34,13.87-2.4,14.76,16.86,14.76,16.86"/><path class="cls-15" d="M416.36,384.88S369,418.42,366.92,419.59c0,0-4.89,5.69-10.26,5.69"/><path class="cls-8" d="M498.86,492s32.34,1.57,53.21,0l-12.52,33.9h-26.6C512.42,523.25,498.86,492,498.86,492Z"/><path class="cls-16" d="M510.85,494s-17-11.48-16.17-38.6c.77-25.56,9.82-36.63,11.48-42.25a40.15,40.15,0,0,0-3.77-28.69c-6.76-11.89-7.74-28.18,8.53-28.17,14.55,0,23,17.38,23.27,26.12.51,14.13-2,34.63,11.61,52.64,9,12,8.87,33.89,6.26,41.72s-12,17.22-12,17.22Z"/><path class="cls-17" d="M511.76,362.09s24.52,62.5,15.13,124.1"/><path class="cls-17" d="M525.56,375.13s3,9.77,0,17.21"/><path class="cls-17" d="M532.63,408.51s2.09,8.87,0,13.56"/><path class="cls-17" d="M541.63,448.29s2.09,11.31-10.43,28.53-26.6-15.4-27.65-27"/><path class="cls-17" d="M511.76,427.29s4.3,13.86,12.32,17.89"/><path class="cls-17" d="M511.76,403c2.61,1.33,3.21,10.44,8.63,12.28"/><path class="cls-18" d="M505.41,352.86s.69,9.77,6.17,11"/><line class="cls-19" x1="552.06" y1="477.3" x2="620.18" y2="477.3"/><polyline class="cls-19" points="494.66 543.72 477.48 476.98 498.81 476.98"/><polyline class="cls-19" points="-9.28 169.72 98.47 145.58 98.47 508.08"/><polyline class="cls-20" points="-9.28 154.73 103.25 129.51 103.25 508.08"/><path class="cls-21" d="M90.6,367.08c-.41,4.06-3,6.73-5.68,6s-4.6-4.67-4.19-8.73,3-6.73,5.68-6S91,363,90.6,367.08Z"/><path class="cls-6" d="M233.08,295.31l6.49,24.92a1,1,0,0,1-.94,1.2l-4.3,0s1.78,18.8-1.25,20-17,0-17,0v17H202.75l-10.92-40,17.59-30.94Z"/><path class="cls-11" d="M211.85,323.82c-7-4.34-14,2.43-6.67,16.38,1.44,2.75.37,9.45.61,12.74.82,11.64-1.32,14.47,1.82,21.34,5.82,12.74,39.43,81.17-12.74,100-51.79,18.67-80.07-29.12-54-77,8.28-15.21,12.13-18.2,18.8-34s-2.43-48.53-3-54.59,5.46-29.72,26.08-29.12,28.51-9.1,28.51-9.1,14.56-8.49,21.84,0,4.85,23.66,0,24.87-21.23,2.43-21.84,8.49,4.25,18.8,4.25,18.8Z"/><polyline class="cls-19" points="571.48 517.83 563.82 491.96 606.08 491.96"/><polyline class="cls-19" points="563.82 491.96 559.97 499.12 566.53 522.11"/></g></g></g></svg>