<svg xmlns="http://www.w3.org/2000/svg" viewBox="0 0 823.19 648.08"><defs><style>.cls-1{isolation:isolate;}.cls-2{fill:#f7ede8;}.cls-3{fill:#f9f498;}.cls-13,.cls-14,.cls-23,.cls-4,.cls-8{fill:none;stroke-miterlimit:10;}.cls-4{stroke:#80bfb3;stroke-width:1.32px;}.cls-5{fill:#f7f5b5;}.cls-6{fill:#f7e892;}.cls-7{fill:#fff;}.cls-8{stroke:#cec8e5;stroke-width:0.81px;}.cls-9{fill:#1abc9c;}.cls-10{fill:#d5d0ef;}.cls-11{fill:#6237ae;}.cls-12,.cls-15,.cls-16{fill:#afa3e2;}.cls-13,.cls-14,.cls-23{stroke:#afa3e2;}.cls-13,.cls-14{stroke-width:1.22px;}.cls-14{stroke-dasharray:2.53 2.53 2.53 2.53 2.53 2.53;}.cls-15{font-size:9.77px;}.cls-15,.cls-16{font-family:Montserrat-Regular, Montserrat;}.cls-16{font-size:4.7px;}.cls-17{fill:#aae8dc;}.cls-18{fill:#fcdac8;}.cls-19{fill:#db8d8d;}.cls-20{fill:#3d3d3d;}.cls-21{fill:#353535;}.cls-22{fill:#f2a5a5;}.cls-23{stroke-width:0.79px;mix-blend-mode:multiply;}</style></defs><title>Osta</title><g class="cls-1"><g id="Layer_1" data-name="Layer 1"><path class="cls-2" d="M13.82,283.87C-32.88,409.66,43.61,524,170.39,567.93,221.24,585.56,285.64,580.48,320,582c65.45,3,185.61,44.11,200.54,49.68,123.16,46,254.65-7,292.79-132.77,35.59-117.35-28.08-242.65-145-282.48q-1.9-.65-3.81-1.26c-59-19-110-56.62-147.79-105.69A227.46,227.46,0,0,0,409.49,32.9C312.23-.22,208.1,36,150.8,115c-19,26.16-40.81,50.18-66,70.4A227.29,227.29,0,0,0,13.82,283.87Z"/><ellipse class="cls-3" cx="157.44" cy="342.56" rx="34.15" ry="3.54"/><path class="cls-4" d="M195.07,309.89c.38-5,9.55-12.68,14.58-16.51,1.64-1.25,7.25-11.92-8.45-9.33-18.48,3.05-37.24,45-38.78,54.24s-5,8.83-5,8.83,6.06.35,16.08-17.83,16.69-19.66,17.43-17.06-.74,17.06-.74,17.06-.61,2.49,1.13,3.88,4.34-.17,5-1.22,1.22-4.51,1.39-7.64.55-9.64.4-10.92c-.31-2.69-3.53-6.13-11.33-1.21"/><path class="cls-4" d="M190.94,320.41c-5.24,1.44-10,11.08-10.26,11.75s-5.78,9.54-11,13.39-12.26,1.58-12.26,1.58S156,329,156.34,318s1.93-41.8,2.89-45.27-1.35-40.26,2.5-48.73,5-13.48,7.51-14.06,6.93-1,10.21,10.4,3.85,13.1,13.1,14.83,6.93-14.64,5-18.49-6.36-13.1-15.8-12.91a17.32,17.32,0,0,0-13.82,7"/><path class="cls-4" d="M184.71,232.36s-7,7.12-6.92,23.59.38,38.62-2.17,44.59-4.85,16.64-19.18,14.85"/><path class="cls-4" d="M177.82,275.8s12.85-17.86,14.27-19,9.94-6.82,15.34,0-6.23,25.26-11.78,29.28"/><path class="cls-4" d="M152.9,209.38c-5.4.28-8.24,9.37-8.24,12.78s.28,25.56-3.69,36.35-11.36,10.51-16.19,9.66-9.09-5.4-10.22-11.64,1.93-25.76,1.7-34.36c-.28-10.65,5.26-18.35,12.59-21.21,6.58-2.57,27.59-6.85,31,34.32"/><path class="cls-4" d="M117,262.73s-10.71,7.58-7.25,19.92c3.13,11.17,10.47,13.54,12.36,14.72a93.36,93.36,0,0,1,22.5,22.26,95.59,95.59,0,0,1,12.8,27.49s-4,1.16-13.27-5.47-5.45-13-12.08-18.47-19.72-13.2-13.42-27.75"/><path class="cls-4" d="M137.06,265.09s4.26,3.1,5.45,10.7,5.35,23,14.64,24.42"/><path class="cls-4" d="M127.24,201.67s-1-22.3,6-27.14,10.86-1.61,11.18,3.87a177.69,177.69,0,0,1,0,22.72"/><path class="cls-4" d="M148.44,203.8s2.89-28.94,7.83-37,14.62-10.64,21.55-5.8,8.52,14.5,8.54,18.38c0,5.8-1.65,24.69-1.65,24.69"/><path class="cls-5" d="M191.59,342.56,179.8,396.24c-15.29,9.34-45.45,0-45.45,0l-11.06-53.68L142.42,345a156.23,156.23,0,0,0,28.77,0Z"/><path class="cls-6" d="M459.12,415.49c0,9.2,7.22,19.68,17.29,24l213.77,91.09c6.09,2.6,12.44,2.56,17.41-.11l.81-.43c5.44-2.92,8.64-8.66,8.64-15.5v-396c0-7.74-4.06-15.58-10.34-20.82q-.46-.39-.94-.75a27.78,27.78,0,0,0-6-3.53L485.17,1.93c-13.45-5.73-26.05,1.82-26.05,15.61Z"/><path class="cls-5" d="M459.12,79.7V414.34c0,10.33,7.24,20.83,17.32,25.11l197.24,83.78c13.44,5.71,26-1.85,26-15.63V127.93c0-9-5.51-18.15-13.61-23.18a27.24,27.24,0,0,0-3.62-1.89L485.23,18.22c-13.46-5.78-26.11,1.77-26.11,15.59Z"/><polygon class="cls-7" points="631.47 120.03 468.25 49.99 468.25 85.62 468.25 391.08 687.48 485.15 687.48 144.06 631.47 120.03"/><path class="cls-7" d="M555.41,70.84l74,31.74a2.16,2.16,0,0,0,3.24-1.93h0a3.55,3.55,0,0,0-2.14-3.11l-74-31.74a2.16,2.16,0,0,0-3.24,1.93h0A3.55,3.55,0,0,0,555.41,70.84Z"/><path class="cls-7" d="M545.87,64.05a2.45,2.45,0,0,1-3.13,2.46,4.12,4.12,0,0,1-3.13-3.83,2.45,2.45,0,0,1,3.13-2.46A4.12,4.12,0,0,1,545.87,64.05Z"/><line class="cls-8" x1="486.28" y1="260.04" x2="662.28" y2="335.57"/><path class="cls-9" d="M494.33,339.1l155.44,66.7c6.42,2.76,12.44-.9,12.36-7.5l-.39-31.46a13.56,13.56,0,0,0-8.15-11.74l-155.44-66.7c-6.42-2.76-12.44.9-12.36,7.5l.39,31.46A13.56,13.56,0,0,0,494.33,339.1Z"/><path class="cls-10" d="M491.69,372l164.16,71.1c3.32,1.42,6.44-.44,6.44-3.84h0A7.05,7.05,0,0,0,658,433.1L493.88,362c-3.32-1.42-6.44.44-6.44,3.84h0A7.05,7.05,0,0,0,491.69,372Z"/><path class="cls-11" d="M536.67,168.2c0,13.73-11,20.08-24.61,14.2s-24.61-21.79-24.61-35.51,11-20.08,24.61-14.2S536.67,154.47,536.67,168.2Z"/><path class="cls-11" d="M662.82,222.83c0,13.73-11,20.08-24.61,14.2s-24.61-21.79-24.61-35.51,11-20.08,24.61-14.2S662.82,209.1,662.82,222.83Z"/><path class="cls-12" d="M517.89,151.8c0,3.26-2.61,4.76-5.84,3.37s-5.84-5.17-5.84-8.42,2.61-4.76,5.84-3.37S517.89,148.54,517.89,151.8Z"/><path class="cls-12" d="M523.82,174.27c0-6.56-5.27-14.16-11.76-17s-11.76.22-11.76,6.78Z"/><path class="cls-12" d="M651.25,228.55l-3.11-1.35V225l-.89-.38a.6.6,0,0,0,.89-.51,1.68,1.68,0,0,0-.89-1.28l-.3-.13v-7.33l.3.13a.6.6,0,0,0,.89-.51h0a1.68,1.68,0,0,0-.89-1.28l1.19.51v-1.8l1.19.51c1.78.77,2.37-1.37.74-2.82L639,199.44a1.67,1.67,0,0,0-1.48-.64l-11.41.75c-1.63,0-1,2.69.74,3.46l1.19.51v1.8l1.19.51a.6.6,0,0,0-.89.51h0a1.68,1.68,0,0,0,.89,1.28l.3.13v7.33l-.3-.13a.6.6,0,0,0-.89.51,1.68,1.68,0,0,0,.89,1.28l-.74-.32v2.24l-3.11-1.35v2.39l25.92,11.23ZM637,218.35l-.3-.13a.6.6,0,0,0-.89.51,1.68,1.68,0,0,0,.89,1.28L632,218a.6.6,0,0,0,.89-.51,1.68,1.68,0,0,0-.89-1.28l-.3-.13v-7.33l.3.13a.6.6,0,0,0,.89-.51h0A1.68,1.68,0,0,0,632,207l4.74,2.05a.6.6,0,0,0-.89.51h0a1.68,1.68,0,0,0,.89,1.28l.3.13Zm-1.78-16.18c0-1.65,1.33-2.41,3-1.71a5.16,5.16,0,0,1,3,4.28c0,1.65-1.33,2.41-3,1.71A5.16,5.16,0,0,1,635.25,202.17Zm9.33,19.45-.3-.13a.6.6,0,0,0-.89.51,1.68,1.68,0,0,0,.89,1.28l-4.74-2.05a.6.6,0,0,0,.89-.51,1.68,1.68,0,0,0-.89-1.28l-.3-.13V212l.3.13a.6.6,0,0,0,.89-.51h0a1.68,1.68,0,0,0-.89-1.28l4.74,2.05a.6.6,0,0,0-.89.51h0a1.68,1.68,0,0,0,.89,1.28l.3.13Z"/><line class="cls-13" x1="598.63" y1="199.89" x2="597.13" y2="199.25"/><line class="cls-14" x1="594.81" y1="198.24" x2="577.38" y2="190.69"/><line class="cls-14" x1="576.21" y1="190.19" x2="554.13" y2="180.62"/><line class="cls-13" x1="552.97" y1="180.12" x2="551.48" y2="179.47"/><polygon class="cls-12" points="596.9 193.7 595.78 194.19 598.2 199.71 592.52 201.71 592.93 202.87 599.84 200.42 596.9 193.7"/><path class="cls-13" d="M579.7,186.08l-8.09-3.5a2.15,2.15,0,0,1-1.24-1.79v-9.11c0-.69.56-1,1.24-.72l8.09,3.5a2.15,2.15,0,0,1,1.24,1.79v9.11C580.94,186.05,580.39,186.37,579.7,186.08Z"/><path class="cls-13" d="M573.06,171.59V168c0-1.45,1.16-2.12,2.6-1.5h0a4.51,4.51,0,0,1,2.6,3.75v3.6"/><path class="cls-13" d="M576.93,178c0,.78-.63,1.15-1.4.81a2.44,2.44,0,0,1-1.4-2c0-.78.63-1.15,1.4-.81A2.44,2.44,0,0,1,576.93,178Z"/><line class="cls-13" x1="575.53" y1="181.87" x2="575.53" y2="178.81"/><line class="cls-8" x1="487.45" y1="194.08" x2="662.82" y2="270.03"/><path class="cls-11" d="M568.93,273.53,494,241.1c-3.65-1.58-6.6-5.84-6.6-9.53V223.1c0-3.68,3-5.39,6.6-3.81l74.88,32.43c3.65,1.58,6.6,5.84,6.6,9.53v8.48C575.53,273.4,572.57,275.1,568.93,273.53Z"/><path class="cls-11" d="M656.76,311.56l-64.77-28c-3.65-1.58-6.6-5.84-6.6-9.53v-8.48c0-3.68,3-5.39,6.6-3.81l64.77,28c3.65,1.58,6.6,5.84,6.6,9.53v8.48C663.36,311.44,660.41,313.14,656.76,311.56Z"/><text class="cls-15" transform="matrix(0.99, 0.43, 0, 1, 498.31, 235.68)"><tspan xml:space="preserve">12  Sept, 2017</tspan></text><text class="cls-16" transform="matrix(0.99, 0.43, 0, 1, 509.98, 235.49)">th</text><text class="cls-15" transform="matrix(0.99, 0.43, 0, 1, 598.11, 278.89)">09 : 00 : 00 </text><path class="cls-17" d="M511.14,328.9l-2.06-4.29c-.16-.05-.34-.13-.52-.2l-2.68-1.13v3.4l-1.9-.8V314.59l4.58,1.93c2.89,1.22,4.55,3.32,4.55,5.77,0,1.81-.84,2.73-2.34,2.68l2.53,4.84Zm-2.58-6.2c1.74.73,2.74.41,2.74-1.12s-1-2.61-2.74-3.35l-2.68-1.13v4.47Z"/><path class="cls-17" d="M523.71,322.9v1.71L517.54,322v3l5.52,2.32v1.71l-5.52-2.32v3.11l6.35,2.68v1.71l-8.26-3.48V319.51Z"/><path class="cls-17" d="M528.13,324.76v9.56l4.89,2.06v1.73l-6.79-2.86V324Z"/><path class="cls-17" d="M542.9,331v1.71l-6.16-2.59v3l5.52,2.32v1.71l-5.52-2.32V338l6.35,2.68v1.71l-8.26-3.48V327.59Z"/><path class="cls-17" d="M552.71,343.86l-5.69-2.4-1.08,2.09-2-.84,5-9.19,2,.82,4.94,13.37-2-.86Zm-.72-2-2.13-5.91-2.13,4.12Z"/><path class="cls-17" d="M560.8,340.23c-1.11-.47-1.84-.35-1.84.4,0,2.47,6.1,3.71,6.08,7.77,0,2-1.77,2.51-4.26,1.46a11.78,11.78,0,0,1-4.61-3.73l.82-1.3a10.24,10.24,0,0,0,3.82,3.26c1.32.56,2.11.39,2.11-.48,0-2.52-6.1-3.68-6.1-7.7,0-1.94,1.66-2.45,4.11-1.41a12,12,0,0,1,4,2.83l-.79,1.34A11.06,11.06,0,0,0,560.8,340.23Z"/><path class="cls-17" d="M575.33,344.65v1.71l-6.16-2.59v3l5.52,2.32v1.71l-5.52-2.32v3.11l6.35,2.68V356l-8.26-3.48V341.25Z"/><path class="cls-17" d="M584.27,348.41l3.73,9.07,3.71-5.94,2.24.94v11.29l-1.76-.74,0-8.44-3.56,5.76-1.24-.52-3.56-8.76v8.44l-1.79-.75V347.46Z"/><path class="cls-17" d="M608,364c0,3.23-2.61,4.63-6,3.21s-6-5-6-8.25,2.61-4.59,6-3.17S608,360.81,608,364Zm-10-4.23a6.9,6.9,0,0,0,4.06,5.73c2.21.93,4-.08,4-2.32a6.77,6.77,0,0,0-4-5.68C599.78,356.6,597.94,357.57,597.94,359.81Z"/><path class="cls-17" d="M611.88,360l6,10.66v-8.11l1.87.79v11.29l-1.87-.79-6-10.63v8.1l-1.9-.8V359.25Z"/><path class="cls-17" d="M630.85,368v1.71l-6.16-2.59v3l5.52,2.32v1.71l-5.52-2.32V375l6.35,2.68v1.71l-8.26-3.48V364.63Z"/><path class="cls-17" d="M638,378.57v3.76l-1.89-.79v-3.69l-4.21-9.37,1.92.81,3.23,6.86,3.16-4.17,1.94.82Z"/><path class="cls-18" d="M374.8,388.9s-43.38,96.66-46.65,100.21-8.67-.79-8.67-.79c.89-19.09,28.62-94.7,28.62-94.7S351.27,380.17,374.8,388.9Z"/><polygon class="cls-19" points="378.76 432.78 267.06 443.35 119.88 362.57 209.12 354.13 378.76 432.78"/><polygon class="cls-19" points="266.4 443.35 266.4 448.7 378.76 437.71 378.76 432.62 266.4 443.35"/><path class="cls-19" d="M120.35,441.1a.47.47,0,0,1-.47-.47v-78l.94-.1V440.1L208,430V359.79h.94v70.59a.47.47,0,0,1-.42.47l-88.1,10.24Z"/><path class="cls-19" d="M266.4,534.75a.47.47,0,0,1-.47-.47V448.7a.47.47,0,0,1,.43-.47l112.36-11.08a.48.48,0,0,1,.36.12.47.47,0,0,1,.15.35v83.91a.47.47,0,0,1-.42.47L266.45,534.74Zm.47-85.62v84.62l111.42-12.64v-83Z"/><polygon class="cls-5" points="347.5 282.96 327.35 282.96 340 249.51 360.14 249.51 347.5 282.96"/><path class="cls-18" d="M323.74,224.37s-6.51,7-6.78,11.43-.22,11-.93,10.9a8.38,8.38,0,0,1-4.2-1.58c-.85-.54-.09,4.06-1,5s-.89,0-2,1.11-2.53,5.05-4.39,5.18-6-.8-11.83-4C290,251,280.17,256,280,256.65s-20.63-8.49-20.63-8.49,10.23-7.71,12.63-11,15-1.73,17.68-4.78-.21-9.19,5.58-9.44c5.4-.23,3.46,7.31,2.79,7.58s8.51-1.33,10.37-4.12S318,222.25,323.74,224.37Z"/><path class="cls-20" d="M323.74,224.37s-2.9-25.4-27-23.47-22.21,19.74-28.75,19c-12.3-1.45-18.33,12.3-5.74,18,9,4.11,13.21,6.26,16.11,10.86,6.27,10,24.37,5.85,16.4-9a53.7,53.7,0,0,1-3.58-8.85c-.48-1.67-.33-9,5.27-7.81,1.77.38,2.19,1.37,2.22,3,0,2.66-.91,4.39-.57,4.38,2.16-.08,7.94-1.69,8.46-2.25C312.57,221.81,317.67,223.33,323.74,224.37Z"/><path class="cls-18" d="M311.37,321l29.3-40.4s-2.22-8.88,0-9.32.89,7.1,2.66,6.66,7.1,3.11,9.77-12.43S358,276.14,358,276.14s-4,7.1-9.77,10.21S318,350.28,311.37,350.28s-14.65-14.21-14.65-14.21S304.27,320.53,311.37,321Z"/><path class="cls-18" d="M420.87,485.26s-2.06,5.24-9.16,3.85c-.71-.14-22.2-26.06-28.41-46-1.55-5-6.88-27.08-6.88-27.08-12.43,0-35.37-3.57-42.92-6.73-7.23-3,13.39-28.79,13.39-28.79s33.93,7,41.73,20C397.71,415.56,420.87,485.26,420.87,485.26Z"/><path class="cls-21" d="M315.38,487.64l-3.86.24s-1.78,7.44,0,9.22,11.1,1.78,11.1,1.78a46.79,46.79,0,0,1,8.44,0c4,.44,12.45-.44,14.22,0s3.11-4.44,0-5.55-20.44-5.44-20.44-5.44A8.53,8.53,0,0,1,315.38,487.64Z"/><path class="cls-21" d="M410.86,488.3,407,489s-.95,7.59,1,9.16,11.23.55,11.23.55a46.79,46.79,0,0,1,8.38-.93c4,0,12.32-1.81,14.14-1.56s2.6-4.75-.61-5.52-20.4-5.25-20.4-5.25S416,491.18,410.86,488.3Z"/><path class="cls-18" d="M350.24,362.57c.55-.1,18.27-1.49,20.16-.81,12.07,4.39,9.66,18.7-4.43,37-8.67,11.25-17.66-14.86-17.66-14.86S344.68,363.59,350.24,362.57Z"/><path class="cls-18" d="M301.4,291.43s17.51-19.61,22.34-22.78,11.16-6.86,15.91-5.81-9.08,3.7-9.55,6.86,3.22-2.64,5.33,2.11-4,12.14-8.08,12.14-8.82,3.17-8.82,3.17l-10.84,24.3S297.46,301,301.4,291.43Z"/><path class="cls-20" d="M321.77,217S329,222.91,323,227.5c-2.83,2.19-10.28.07-14.31.79s-9.27,4.09-10.41,2.95.92-3.74.92-3.74S317.14,215.36,321.77,217Z"/><path class="cls-22" d="M227.91,370.7s6.22,26.19,15.54,31.52,85.24,1.33,98.12,9.77,19.09-27.08,13.32-34.63-3.55-17.76-6.22-19.09-59.16,7.1-59.16,7.1S232.79,365.37,227.91,370.7Z"/><path class="cls-12" d="M259.41,248.17s-40.83,36.41-31.51,122.53a120.85,120.85,0,0,0,31.51,4,54,54,0,0,0,30.09-9.32s-3-2.22-6.1-12.43,8.18-28,8.18-28,3.37,9.32,5.14,11.1S314,325,311.37,321s-15.09-46.62-16.43-51.5S280,256.65,280,256.65Z"/><line class="cls-23" x1="291.58" y1="324.97" x2="278.52" y2="295.23"/></g></g></svg>