<svg xmlns="http://www.w3.org/2000/svg" viewBox="0 0 852.86 596.63"><defs><style>.cls-1{isolation:isolate;}.cls-2{fill:#f7ede8;}.cls-3{fill:#fcdac8;}.cls-10,.cls-13,.cls-16,.cls-18,.cls-19,.cls-21,.cls-22,.cls-4,.cls-6,.cls-9{fill:none;}.cls-19,.cls-4{stroke:#3d3d3d;}.cls-10,.cls-13,.cls-15,.cls-16,.cls-18,.cls-19,.cls-21,.cls-22,.cls-4,.cls-9{stroke-miterlimit:10;}.cls-4{stroke-width:0.82px;}.cls-5{fill:#3d3d3d;}.cls-6,.cls-7{stroke:#1d1d1b;stroke-linecap:round;stroke-linejoin:round;stroke-width:1.19px;}.cls-7{fill:#f5f5f5;}.cls-8{fill:#d5d0ef;}.cls-9{stroke:#d5d0ef;stroke-width:1.35px;}.cls-10,.cls-13,.cls-16,.cls-18,.cls-9{mix-blend-mode:multiply;}.cls-10,.cls-18{stroke:#fbd2ae;}.cls-10{stroke-width:0.68px;}.cls-11{fill:#575756;}.cls-12,.cls-15{fill:#f7f5b5;}.cls-13{stroke:#fcdac8;}.cls-13,.cls-21{stroke-width:1.63px;}.cls-14{fill:#afa3e2;}.cls-15{stroke:#f7f5b5;stroke-width:0.72px;}.cls-16{stroke:#afa3e2;stroke-width:0.8px;}.cls-17{fill:#f2a5a5;}.cls-18{stroke-width:0.95px;}.cls-19{stroke-width:0.79px;}.cls-20{fill:#efdbd3;}.cls-21{stroke:#6237ae;}.cls-22{stroke:#1abc9c;stroke-width:1.32px;}</style></defs><title>Osta</title><g class="cls-1"><g id="Layer_1" data-name="Layer 1"><path class="cls-2" d="M852.77,373.32c3.73,137.13-108,222.56-245.16,223.31-55,.3-115.69-25.84-149.46-35.67-64.32-18.72-194.18-18.49-210.47-18-134.35,3.89-244.16-90.68-239.61-225C12.32,192.63,115.23,92.35,241.57,92.35q2.06,0,4.11,0C309,93.48,370.76,73.83,423.56,38.81A232.56,232.56,0,0,1,552.55,0C657.61,0,746.46,69.33,775.86,164.75c9.73,31.57,23,62,40.68,89.89A232.39,232.39,0,0,1,852.77,373.32Z"/><path class="cls-3" d="M199.81,233l-5.08,24.81H181l16,35s23.3,11,27,11,31.35-30.27,31.35-30.27l-19-11.32-.68-18.92,18.44-24.91,3.12.14s6.73.9,6.58-2.55c-.09-2-9.69-15.2-9.69-20.92s-2.78-15.81-2.78-15.81l-19.58-7.32L203.93,193.4Z"/><path class="cls-4" d="M238.24,169.19c-1-.85,8.95,2.27,14.64-2.33"/><path class="cls-5" d="M233.13,165.49a43,43,0,0,0,13.79,5c2.84.45,9.36-.22,9.36-.22s3.35,6.8-5,9a16.6,16.6,0,0,1-6.41.34,6.88,6.88,0,0,0-6.36,2.53c-4.56,5.8-13.69,16.92-16.77,16.81-4.16-.14,12.48,18.58,12.48,18.58l25.1,1.11v2.91l-5.68,3.74,5.68,4.71.55,12.34s-12.62,4.58-24.26,1-9.84-29.67-13.45-33.14-11.45-2.47-13.07,12.14L199.81,233s-19-19.95-18.82-40.74C181.12,172.77,209.27,152.42,233.13,165.49Z"/><path class="cls-6" d="M209.4,220.12s-2.78-12.46,9.38-14.8,35.49-8.74,35.49-8.74"/><path class="cls-7" d="M251.28,188.76l4.29-1a63.27,63.27,0,0,1,3.74,16.94c.08,1-4,.69-4,.69Z"/><path class="cls-8" d="M194.82,257.41l-36.39-.83h0a25.36,25.36,0,0,0-25.14,22L132.4,315a211.54,211.54,0,0,1-3.55,33.82l-16.39,87.49,143-10.82,19.87-90.44,14.38,11.37,14.12-21.59L268.6,276.58c-6.93-9.49-20.56-14.36-32.31-14.36,0,0,10,7.67,4.31,19.28-5.38,10.9-24.94,5.09-32.45-2.12S194.82,257.41,194.82,257.41Z"/><line class="cls-9" x1="134.31" y1="292.4" x2="134.66" y2="371.45"/><path class="cls-9" d="M170.6,256.82s18.62,14,10.51,41a386.63,386.63,0,0,0-11.34,48.8"/><path class="cls-3" d="M289.73,346.45c4,10.58,10.37,12.08,15.42,11.19a16.7,16.7,0,0,0,10-6.17c10.32-12.91,52.74-65.47,59.34-65a19,19,0,0,0,12.15-2.89,141.67,141.67,0,0,0,16.2,1.74c7.81.29,14.17-6.65,14.17-6.65s-23.43-11.86-30.94-13.3-12.15,2.31-12.15,2.31l-70.1,57.16Z"/><path class="cls-10" d="M372.5,275.23c4,.58,20.53,1.16,22,0s-9.67-4-9.67-4"/><line class="cls-10" x1="400.55" y1="277.25" x2="413.79" y2="281.5"/><path class="cls-11" d="M349,330.77,396.83,285a8.33,8.33,0,0,1,6-2.31l69.92,2a2.64,2.64,0,0,1,1.83,4.46l-43.39,45.17a8,8,0,0,1-5.94,2.46l-74.48-1.46A2.64,2.64,0,0,1,349,330.77Z"/><path class="cls-12" d="M239.19,327.15h48.25a2.29,2.29,0,0,1,2.29,2.29v18.18l31.15,71v4.71H214.58v-5.74l22.32-71.12v-17A2.29,2.29,0,0,1,239.19,327.15Z"/><polyline class="cls-13" points="259.71 423.34 259.71 417.77 237.79 346.47 289.73 346.47"/><line class="cls-13" x1="236.9" y1="417.81" x2="236.9" y2="346.47"/><path class="cls-13" d="M220.82,421.18c1.53-.31,16.81-7.64,30.87,0"/><path class="cls-2" d="M320.27,364.45c10.71.12,107.38,0,107.38,0v59.33H320.27Z"/><path class="cls-2" d="M72.79,480.18l-4.4-56.4c9.72.12,359.44,0,359.44,0v123"/><path class="cls-13" d="M148.32,423.78c6,.08,75.69.06,172,0V364.45c10.71.12,107.38,0,107.38,0l.18,59.33v130"/><path class="cls-11" d="M378.79,334.62l-13.22,13.49a9.23,9.23,0,0,0-2.64,6.46v9.2h11.2l-.18-7.21a9.23,9.23,0,0,1,2.64-6.46l13.72-15.4"/><path class="cls-3" d="M134.66,371.45l65.2-33.77L234.11,321H253a7.38,7.38,0,0,1,5.43,2.39L271.86,338l-6,2-17.19-4H242.3l-72.51,46s-18.58,16.67-35.13-10.49"/><path class="cls-5" d="M611.78,160.11c-7.33,4.11-11,13.11-11.48,16.78-2,15.08-6.55,18.31-9.89,21.88-5.82,6.21-9.71,20.3-2.43,35.61s39.88,11,39.88,11h42.84a17.81,17.81,0,0,0,8.68-2.18c5.9-3.29,14.43-11,12.87-27.68-1.93-20.64-15.38-22.43-22-25.57-13.92-6.58-6.85-10.44-13-20.8C645.24,149.22,616.68,157.36,611.78,160.11Z"/><path class="cls-3" d="M554.07,388.94l-46.35-25.81L493,367.54a3.57,3.57,0,0,1-4.52-2.69l-.36-1.73-14.85,3a1.67,1.67,0,0,1-1.84-.91l-.77-1.59a5.54,5.54,0,0,1,3.11-7.63l24.71-8.91a12.2,12.2,0,0,1,8.3,0l15.75,5.72,48.18,15.08Z"/><path class="cls-3" d="M613.06,174.73l-6.83,31a1.48,1.48,0,0,0,1.47,1.8l5.12-.08v19.28a4.07,4.07,0,0,0,4.07,4.07h9.64l.93,26h29.09l-4.15-43.38a49.55,49.55,0,0,0,3.48-4.05c2.61-3.76,2-11.4-4.18-11.19a4.57,4.57,0,0,0-2.85,1.47S616.34,192.64,613.06,174.73Z"/><path class="cls-14" d="M603.69,255.51h89.67A17.47,17.47,0,0,1,709,265.28l45.55,86.46a17.47,17.47,0,0,1-15.68,25.17h0l-27.16-26.28-19.27,10.51,8.76,35H610.13V365.52s-5.89,10.12-10.33,17.3c-6.08,9.84-13.85,16.81-40.3,8.71-6.31-1.93-12.17-4.72-26.22-14.17-7.77-5.22,10.58-18.35,10.58-18.35l26.85,7.38L586.25,272A17.47,17.47,0,0,1,603.69,255.51Z"/><path class="cls-15" d="M602.05,323.64h21.56a1.19,1.19,0,0,1,1.11.74L640,362a1.19,1.19,0,0,1-1.11,1.64H617.33a1.19,1.19,0,0,1-1.11-.74l-15.28-37.62A1.19,1.19,0,0,1,602.05,323.64Z"/><path class="cls-16" d="M602.05,323.64h21.56a1.19,1.19,0,0,1,1.11.74L640,362a1.19,1.19,0,0,1-1.11,1.64H617.33a1.19,1.19,0,0,1-1.11-.74l-15.28-37.62A1.19,1.19,0,0,1,602.05,323.64Z"/><path class="cls-3" d="M738.9,376.91l-95.17-8.39L621.86,361a9.31,9.31,0,0,1-5.49-5l-4.71-10.17,23.7,3.43-1-2.26,5.6,1a4.41,4.41,0,0,1,2.33,1.2l8.79,8.68,60.65-7.2Z"/><path class="cls-3" d="M615.64,596.49A136.79,136.79,0,0,0,612,573.24c-2.14-7.68,2.25-50.25,2.25-50.25,9.73-20,41.35,9.75,41.35,9.75S644,562.29,646,579.23c.57,4.88.78,9.81,1,14.79,0,0-10.41,1.26-15.32,1.6S615.64,596.49,615.64,596.49Z"/><path class="cls-3" d="M671.49,589.83c-.55-7.19-1.5-14.56-2.42-20.39-1.24-7.87,3.37-38.06,3.37-38.06,9.73-20,43.53-8.54,43.53-8.54s-15.52,38.29-13.45,51.78c.2,1.31.7,5.08.84,6.42,0,0-8.56,2.64-14.35,4.46C683.48,587.23,671.49,589.83,671.49,589.83Z"/><path class="cls-17" d="M585.76,512.47c.79-.3,14.81,23.56,89.56,20,40.12-1.9,63.18-20,63.18-20L701.24,396.19H610.13Z"/><polyline class="cls-15" points="737.54 367.66 738.37 362.7 718.55 362.7 711.75 402.94 732.51 392.96 737.54 367.66"/><polygon class="cls-15" points="720.97 397.43 725.71 367.66 744.04 367.66 740.1 385.99 720.97 397.43"/><polyline class="cls-16" points="737.54 367.66 738.37 362.7 718.55 362.7 711.75 402.94 732.51 392.96 737.54 367.66"/><polygon class="cls-16" points="720.97 397.43 725.71 367.66 744.04 367.66 740.1 385.99 720.97 397.43"/><path class="cls-16" d="M667.33,370.59a23.29,23.29,0,0,0,2.67,16.8l17.6,30"/><path class="cls-16" d="M730.43,391.53,713.24,362.2A23.38,23.38,0,0,0,682,353.42l0,.73"/><path class="cls-16" d="M600.66,277.3s-13.77,32.28-10.76,46.91,20.23,41.31,20.23,41.31"/><line class="cls-16" x1="711.75" y1="350.63" x2="691.43" y2="310.59"/><line class="cls-16" x1="570.71" y1="366.4" x2="580.44" y2="361.35"/><path class="cls-5" d="M652.2,213.39c-14.91,8.85-13,31.29,2.75,32C672.41,246.26,662.47,207.29,652.2,213.39Z"/><path class="cls-18" d="M629,212.74a8,8,0,0,1-8.36,7.59"/><path class="cls-19" d="M619.73,158s-16.9,1.06-21.39,13.41c-2.74,7.53-.14,15.25-2.33,22.57"/><path class="cls-19" d="M657.33,171.39s3.71,9.21,5.29,11.5,5.93,4.95,10.67,6,13.42,3.69,16.87,11.31c2.21,4.89,2.3,8.67,1.52,16.31"/><polygon class="cls-20" points="664.23 431.17 777.39 364.75 825.9 447.53 709.49 515.54 664.23 431.17"/><line class="cls-16" x1="799.02" y1="423.75" x2="692.44" y2="484.24"/><line class="cls-21" x1="430.4" y1="276.19" x2="410.08" y2="216.51"/><line class="cls-21" x1="458.93" y1="241.57" x2="445.95" y2="273.84"/><path class="cls-21" d="M462.89,276.19s3.87-9.43,13.46-4.72c6.48,3.18,11-.78,11.46-3.21"/><line class="cls-21" x1="612.35" y1="315.4" x2="606.35" y2="301.45"/><line class="cls-21" x1="618.16" y1="312.84" x2="622.19" y2="305.02"/><line class="cls-21" x1="602.68" y1="314.46" x2="597.26" y2="311.88"/><path class="cls-22" d="M117.09,512.63c13.58-1.65,9.72-5.71,6-5.44s-16.44-2.61-16.75-5.32,5.87-2.88,16.25.72,38.79-1.7,43.36-1.8,4.28.78,3.1-.74-11.75-4.87-25.06-5.64-37.54,4.48-39.18,2.44.63-.83,19.71-4.71,39.38-15.48,44.17-27.45c1.41-3.53.85-9.35-.29-5.86s-24.44,21.3-44,24A54.34,54.34,0,0,0,111.6,486a62.86,62.86,0,0,1,9.62-7.68c8-5.87,27.92-18.06,29.4-32.81.33-3.29-34,22.77-42.39,33.72s-9.41,9.57-8.59,7.43,13.6-23.53,30-36.88,19.79-28.33,19.54-30.24-.2.86-7.14,5.91-22,20.8-31.25,31.12-10.11,17.06-11.15,17.94.1-5.76.58-8.23,6.12-13.35,15.22-22.18S141.95,416,134,385.58c-1.59-6.11-3.5,25.05-16.48,36.62s-11.92,16.56-16.85,27.46c-1,2.21-4.39-7.78-2.51-12.82,3.23-8.68,5.83-21.52,11.22-35.31s13.82-37.07,10.86-45.8-2.34-10.74-5.22-5S100.76,386,98.18,390.08s-10.7,29.1-7.32,49.85c2.45,15.1,4.08,20.91-1.85,7.38-4.74-10.79-7.64-30.86-13.5-40.42s-8.86-25.5-11.78-21.78,4.46,30.1,8.19,39.19c3.81,9.31,22.74,38.24,21.44,39.6s-2-.63-9.53-9.15-36-29.29-45.58-26.76-19.59,5.49-23.86,8.58S.3,449.11.67,450.77s13.51-8.84,19.73-8.64c2.67.09,20.5-3,33.16.57C72.9,448.08,94.5,468.37,93,473.24c-.65,2.2-23-19.12-36.78-19.12-19.06,0-27.45,1.84-31.77,10-1,1.88,9.33-4.93,16.14-4.13,13.19,1.55,34.71,5.55,42.88,14s7.82,11.59,6.41,10.66-27.07-19.56-54.05-14.27c-3.77.74-19.61,9.49-12,8.13,10.41-1.87,21.54-3.27,35.2,9.39,10.7,9.92,18.66,11.81,21.48,12.8,4,1.41,9,5,8.59,6-.89,2.25-8.43.28-22.22-5.28-17.63-7.11-29.76-5.79-30.37-4.5s7.83,7.95,12,9.88,13.07,2.93,16.77,6.27c2.29,2.06,9.34,1.83,15,.83l2-1.72a31,31,0,0,1,6.66,1c1.58.51,5.65-6.87,6.49-12.42,0,0,3.21-4,3.5,6.41"/></g></g></svg>