<svg xmlns="http://www.w3.org/2000/svg" xmlns:xlink="http://www.w3.org/1999/xlink" viewBox="0 0 816.84 610.08"><defs><style>.cls-1{fill:#f7f5b5;}.cls-2{isolation:isolate;}.cls-3{fill:#f7ede8;}.cls-4{fill:#efdbd3;}.cls-10,.cls-18,.cls-19,.cls-23,.cls-5,.cls-6,.cls-7{fill:none;}.cls-10,.cls-5{stroke:#d5d0ef;}.cls-10,.cls-18,.cls-19,.cls-20,.cls-23,.cls-5,.cls-6,.cls-7{stroke-miterlimit:10;}.cls-5{stroke-width:1.09px;}.cls-10,.cls-18,.cls-23,.cls-5,.cls-7{mix-blend-mode:multiply;}.cls-6{stroke:#fff;stroke-width:1.25px;}.cls-23,.cls-7{stroke:#fcdac8;}.cls-7{stroke-width:1.58px;}.cls-8{fill:#fffef6;}.cls-9{fill:#e3e1ef;}.cls-10{stroke-width:1.31px;}.cls-11{clip-path:url(#clip-path);}.cls-12{fill:#755138;}.cls-13{fill:#613e35;}.cls-14{fill:#f9d373;}.cls-15{fill:#d56e19;}.cls-16{fill:#afa3e2;}.cls-17{fill:#fcdac8;}.cls-18{stroke:#fbd2ae;stroke-width:1px;}.cls-19{stroke:#f9d373;stroke-width:0.65px;}.cls-20{fill:#7565a9;stroke:#9f94c7;stroke-width:1.31px;}.cls-21{fill:#52487a;}.cls-22{fill:#3d3d3d;}.cls-23{stroke-width:1.32px;}.cls-24{fill:#db8d8d;}.cls-25{fill:#1abc9c;}.cls-26{fill:#f2a5a5;}</style><clipPath id="clip-path"><path id="_Clipping_Path_" data-name="&lt;Clipping Path&gt;" class="cls-1" d="M502,324.09s6.89,1.53,20.68-2.83,31.7-12.18,42.73-3.91S587,349.62,564,357.84s-.44,16.95,6,6.38c0,0-4.14,10.57-14.7,7.35s-7.54-13.78,4-17.92,5.61-3.74,5.61-3.74-26.65,4.81-34.46,5.42l-15-.77"/></clipPath></defs><title>Osta</title><g class="cls-2"><g id="Layer_1" data-name="Layer 1"><path class="cls-3" d="M809.7,450.05C776.08,583.22,645.24,635.23,512.84,598.72c-53.11-14.64-104.48-56.29-134.35-74.93-56.9-35.49-182.11-70.51-197.94-74.48C50,416.61-30.13,295.68,10.7,167.45c38.09-119.6,164.48-188.31,286.23-154q2,.56,3.95,1.15c60.74,18.24,125.58,16.06,186-3.36A232.83,232.83,0,0,1,621.69,8.82C722.92,37.33,789.74,128.25,792.18,228.18c.81,33.07,5.29,66,14.81,97.67A232.66,232.66,0,0,1,809.7,450.05Z"/><path class="cls-4" d="M180.55,449.32c15.83,4,141,39,197.94,74.48,29.87,18.63,81.24,60.28,134.35,74.93,119.48,32.94,237.67-6.21,284.31-112l-608-301.31L5.23,280.93C23.74,361.5,90,426.63,180.55,449.32Z"/><path class="cls-5" d="M426,323.17s-3.62,7.81,1.4,12.13"/><path class="cls-6" d="M292,169.22c-6.62-11.4-16.28-24.45-22.42-25.33-9.07-1.29-17.57,1-22.29,2s-17.46,2.3-17.74,3.85,16.09,1.12,18.38,2,20.93,1.38,29.39,10A147.83,147.83,0,0,1,292,180.69"/><path class="cls-6" d="M292,202.82a67,67,0,0,0-14.63-8l-.49-.2a67.52,67.52,0,0,0-6.37-7.28c-13.85-13.54-12.72-11.6-11.49-7a64.17,64.17,0,0,0,2.66,7.42c-8.09-3.92-14.76-7.46-16.79-8.27-3.28-1.31-11.53-6.06-5.6,2.11s22,18.48,26.93,20c1.31.41,3.34,1.16,5.7,2.16,6,7.17,17.35,23.1,16.46,24-1.06,1-5.8.23-18.22-12.11s-23.2-15.56-24.18-14.68,3.81,9.55,6.68,12.7,10,7.17,12,11.31,18.55,4.54,19.71,6.78"/><path class="cls-6" d="M292,220.34c-1.12-2.3-2.59-5.29-4.37-8.6a29.4,29.4,0,0,1,3.86,2.88l.51.49"/><path class="cls-6" d="M292,188.94c-5.28-5.65-12-12.24-17.27-15.65a28.53,28.53,0,0,0-22.36-3.81c-1.9.51,5.11,2,5.59,2.43,0,0,23.62,13.64,34.05,24.08"/><path class="cls-5" d="M373.27,289.46s4.43,6.42,14.11,3.38"/><path class="cls-7" d="M243.58,387.67s28.3-7.23,50.24,0,60.86,34.46,85.62,43.13,85.8,39.33,89.2,64.8-19.81,18.17-40.91,42.23-88.9,56.61-127.33,9.2-107.92-52.2-127.55-93.91C164.4,435.16,192.63,405.21,243.58,387.67Z"/><path class="cls-8" d="M386.86,153.76l-72.91,39.78S287.8,211,283.19,235.87s-15.25,59.08-2.17,87.59C289.35,341.64,545,486.83,548.26,489.13s29.45,21.53,48.68,9.23,84.59-47.68,88.44-52.29,6.15-2.11,6.15-18.36V339.24s0-21.54-26.15-36.2L411.52,160.75S395.24,149.19,386.86,153.76Z"/><path class="cls-9" d="M394.35,183.75s-47.08,24.38-59,37.64c-10.82,12-34.92,48-18,69.15,8.57,10.71,185,104.36,223.57,124.76a5.32,5.32,0,0,0,7.78-4.07c1-8.46,4.3-21.32,15.16-26.57,16.84-8.14,84.51-44.36,87.18-47.75,3.61-4.57,5.41-6.36-7.82-13.44S394.35,183.75,394.35,183.75Z"/><line class="cls-10" x1="525.04" y1="312.47" x2="510.69" y2="303.31"/><line class="cls-10" x1="596.36" y1="361.69" x2="587.33" y2="355.93"/><path class="cls-10" d="M515.89,257.59a34.21,34.21,0,0,0,4.34.56c1.72.26,3.81.21,5.46.9l0,.07c2.06.93,3.62,3.87-.07,9.78-4.27,6.85-17,24.33-18.91,29.7a16.38,16.38,0,0,1-2.07,3h0a3.83,3.83,0,0,0-.94,2.17c0,1.94,1.45,2.86-1.79,4.11a7,7,0,0,1-4.53-.29c-9.1-4.41-19.08-7.58-27.78-12.07-8.48-4.22-20-9-27.24-14.33-2.95-2.15-3.17-3.14-6.6-4.06-1.61-.43-4.14-.5-3.88-2.7.12-1.49,1.62-1.92,2.94-1.68a56,56,0,0,1,3-5.67"/><path class="cls-10" d="M511,255.18a13.18,13.18,0,0,0,4.87,2.4,17.74,17.74,0,0,1,1.17,8.25c-.14,23.35-26.4,29.53-45.79,23-8.76-3-31-11-33.51-21.74h0c2.4-4.07,5.16-7.91,7.75-11.83a56.87,56.87,0,0,0,5.57-10.89c3.85-6.17,13.65-6.82,21.27-6.13,0,0,0,0,0,0a34.47,34.47,0,0,1,4.92,1.44C489.3,244.26,501.2,248.17,511,255.18Z"/><path class="cls-10" d="M605.33,313a34.21,34.21,0,0,0,4.21,1.22c1.66.52,3.74.8,5.26,1.72l0,.07c1.89,1.24,3,4.37-1.56,9.66-5.27,6.12-20.57,21.43-23.24,26.45a16.38,16.38,0,0,1-2.51,2.66h0a3.83,3.83,0,0,0-1.26,2c-.29,1.92,1,3-2.4,3.79a7,7,0,0,1-4.43-1c-8.32-5.76-17.69-10.42-25.61-16.19-7.74-5.47-18.38-12-24.72-18.33-2.58-2.58-2.65-3.59-5.9-5-1.52-.67-4-1.13-3.42-3.27.35-1.45,1.89-1.65,3.16-1.21a56,56,0,0,1,3.82-5.15"/><path class="cls-10" d="M600.88,309.88a13.18,13.18,0,0,0,4.45,3.12,17.74,17.74,0,0,1-.11,8.34c-3.71,23.05-30.61,25.14-48.77,15.69-8.2-4.28-28.95-15.57-29.79-26.62h0c3-3.65,6.31-7,9.47-10.51a56.87,56.87,0,0,0,7.17-9.91c4.74-5.51,14.54-4.64,22-2.8,0,0,0,0,0,0a34.47,34.47,0,0,1,4.64,2.18C581.1,295.76,592.26,301.44,600.88,309.88Z"/><path id="_Clipping_Path_2" data-name="&lt;Clipping Path&gt;" class="cls-1" d="M502,324.09s6.89,1.53,20.68-2.83,31.7-12.18,42.73-3.91S587,349.62,564,357.84s-.44,16.95,6,6.38c0,0-4.14,10.57-14.7,7.35s-7.54-13.78,4-17.92,5.61-3.74,5.61-3.74-26.65,4.81-34.46,5.42l-15-.77"/><g class="cls-11"><path class="cls-12" d="M572.5,362.08c-3.61,1.47-5.64,3-9.33,3.93a14.81,14.81,0,0,1-4.82.56h-.19l-.31-.08-.84-.19c.2,0-.41-.19-.52-.27a6.85,6.85,0,0,0-1.54-.68,2.92,2.92,0,0,0-3.59,2c-1.3,6.28,7.07,7.77,11.51,7.22,4.86-.6,11.46-2,14.51-6.19C579.51,365.47,575.92,360.69,572.5,362.08Z"/><path class="cls-12" d="M582,326.14c-2.25-4.52-8.84-1.79-12.23-.35-2.22.95-5.18,2.24-7-.22-3.13-4.28-3.43-13.8-10.48-13.62a1,1,0,0,0-.48,1.78c2.35,1.71,2.35,5.6,2.77,8.19.59,3.61,1.39,7.09,4,9.83,3,3.14,7.79,3.36,11.65,2.18,1.76-.54,3.43-1.33,5.21-1.84,2.16-.62,4.26.2,6-1.69A3.62,3.62,0,0,0,582,326.14Z"/><path class="cls-12" d="M573.94,324.16c1-2.45-.64-5.76-1.92-7.74a26.36,26.36,0,0,0-3-3.92,16.08,16.08,0,0,0-1.87-1.56c-.21-.16-1.6-1.23-.72-.54a3.31,3.31,0,0,0-4.44.14l-.09-.06c-2.71-1.75-7,1.18-5.7,4.38.23.59.52,1.23.87,1.91.17,2.41,1.6,5,2.65,6.81,2,3.4,4.74,7.27,8.28,9.19a3.52,3.52,0,0,0,4.22-.54A7.69,7.69,0,0,0,573.94,324.16Z"/><path class="cls-12" d="M537.75,309.45h.1a2.54,2.54,0,0,0-1-.72,3.1,3.1,0,0,0-3.31.17c-3.81,2.35-11.87,9.91-13.32,9.52a1.12,1.12,0,0,0-1.25,1.63c1.62,3.5,6.2,8,10.3,6,4.42-2.11,5.59-8.12,8.53-11.68A3.87,3.87,0,0,0,537.75,309.45Z"/><path class="cls-12" d="M532.7,310.19c-2.48.44-4,2.62-4.64,4.93-.53,1.9-.34,4.62,1.38,5.85a1.53,1.53,0,0,0,1.86-.24c.88-.9,1.14-2.42,1.64-3.56.61-1.35,1.64-2.42,2.22-3.78A2.21,2.21,0,0,0,532.7,310.19Z"/><path class="cls-12" d="M555.18,343.12A5.5,5.5,0,0,0,547.5,346a19,19,0,0,0-1.25,3.87c-.1.46-.19,1-.3,1.45,0,.07,0,.15-.06.22a4.71,4.71,0,0,1-.51,1.29c-.72,1.18.62,2.86,1.86,2.34a4.66,4.66,0,0,0,2.11.71c2.42.32,5.31-2.6,6.67-4.33C558,349,558.84,344.76,555.18,343.12Z"/></g><path class="cls-12" d="M484.65,312.91s-9.8,3.06-11.33,13.48-3.68,23-12.86,22.36-18.07,9.31,2.14,8.48,20.83-7.87,20.83-7.87"/><path class="cls-1" d="M506.4,350.59l-10.11,4.59s-9.23,2-8.88,8.58c.31,5.82,15.31,2.71,14.7-4l14.4-4.59"/><path class="cls-1" d="M484.81,348.75l-10.11,4.59s-9.23,2-8.88,8.58c.31,5.82,15.31,2.71,14.7-4l14.4-4.59"/><path class="cls-1" d="M496,308c-8.86.67-15,4.29-18.68,19.6s-7.93,29.68,5.67,30c6.74.17,11.68.74,16.23-1.23,7.11-3.07,10.11-13.09,12.41-19.6C515.28,326.39,520.18,306.17,496,308Z"/><path class="cls-12" d="M510.38,323.32c3.06,7-1.84,5.21-5.82,21.13s20.83,14.7,29.71,10.58-7.35-6-12.56-10.89-.31-14.09-2.14-20.06a14.73,14.73,0,0,0-6.74-8.42"/><path class="cls-13" d="M494.21,331.59a5.29,5.29,0,0,0,1.56,2.29,3.09,3.09,0,0,0,2.34.52,7.49,7.49,0,0,0,4.62-2.81,5.33,5.33,0,0,1-1.52,2.72,5,5,0,0,1-3,1.41,4.68,4.68,0,0,1-1.71-.13,3.4,3.4,0,0,1-1.48-1A3.71,3.71,0,0,1,494.21,331.59Z"/><path class="cls-13" d="M478.59,331a4.19,4.19,0,0,0,1.25,1.62,2.29,2.29,0,0,0,1.64.31,6.15,6.15,0,0,0,3.47-1.93,3.81,3.81,0,0,1-3.32,3.25,3.62,3.62,0,0,1-1.34-.11,2.61,2.61,0,0,1-1.16-.77A2.68,2.68,0,0,1,478.59,331Z"/><path class="cls-13" d="M523.71,349.24a3.2,3.2,0,0,1-.78-1.61,2.75,2.75,0,0,1,.32-1.79,4.24,4.24,0,0,1,3-1.92,10,10,0,0,1,3.64.09,17.73,17.73,0,0,1,3.46,1.09l-.13,0,6.57-.34-.16.6a21.31,21.31,0,0,1-3.76-3.3,11.57,11.57,0,0,1-2.6-4.29,6.11,6.11,0,0,1,.53-4.93,10.44,10.44,0,0,1,3.6-3.37,10.84,10.84,0,0,0-3.31,3.54,5.68,5.68,0,0,0-.33,4.61,11.7,11.7,0,0,0,2.55,4A22,22,0,0,0,540,344.8l.81.56-1,0-6.57.28h-.07l-.06,0a18.75,18.75,0,0,0-3.33-1.11,9.53,9.53,0,0,0-3.46-.22,4.08,4.08,0,0,0-2.9,1.64A2.86,2.86,0,0,0,523.71,349.24Z"/><path class="cls-14" d="M492.92,318.41s-7.35,19-9.8,20.21-10.11,5.54-9.8,12,7,8.58,13.17,8.27,16.91-.87,17.64-6.26-7.23-8.75-10.29-12.73S492.92,318.41,492.92,318.41Z"/><path class="cls-15" d="M495.61,348.87l-.18-.26a.53.53,0,1,0-.72.72l.26.18A.47.47,0,0,0,495.61,348.87Z"/><path class="cls-15" d="M494.43,352.84a.47.47,0,1,0,0,.93A.47.47,0,1,0,494.43,352.84Z"/><path class="cls-15" d="M497.75,355.28l-.07-.21a.4.4,0,0,0-.76,0l-.07.21a.47.47,0,1,0,.9,0Z"/><path class="cls-15" d="M496.75,350.59c-.33,0-.33.77,0,.77C497.42,351.36,497.42,350.59,496.75,350.59Z"/><path class="cls-15" d="M500.6,352.52a.53.53,0,0,0-1,0,.8.8,0,0,0,0,.32.52.52,0,0,0,1,0A.79.79,0,0,0,500.6,352.52Z"/><path class="cls-15" d="M475.49,347.85c-.33,0-.33.66,0,.66S475.83,347.85,475.49,347.85Z"/><path class="cls-15" d="M475.49,350.3a.45.45,0,1,0,0,.89A.45.45,0,1,0,475.49,350.3Z"/><path class="cls-15" d="M478.48,353.5c-1,0-1,1,0,1A.5.5,0,0,0,478.48,353.5Z"/><path class="cls-15" d="M477.82,350.35c-.66,0-.66.79,0,.79S478.48,350.35,477.82,350.35Z"/><path class="cls-12" d="M487.1,346.6c-4.59-.12-9.5-1-8,3.31s2.76,6.8,5.51,6.8,5.78-2.39,7.16-4.44C493.8,349.32,493,346.76,487.1,346.6Z"/><path class="cls-1" d="M486.46,347.95c.35,0-4.66-.47-5.36.23s.35,4.66,2.21,6.29C483.32,354.47,479.47,347.6,486.46,347.95Z"/><path class="cls-16" d="M371.89,263.45l-74.85,29s-18.78,11,2.35,23.08,70.21,52,70.21,52,4.5-10.8,15.85-9.71-51-49.74-51-49.74l54.94-20.53S388.4,267.33,371.89,263.45Z"/><path class="cls-16" d="M394.3,285.77l-9.95,3.65c-19,7-59.13,21.85-64.18,24.52-6.65,3.52-17.61,8.22-20.34,25.43s-26.6,100.16-27.39,102.5,5.09,7,16,7.43,22.3-7.82,23.08-9.39,23.47-85.29,27-88.81,86.85-22.69,92.72-23.47,16.82-5.8,16.82-9.94S394.3,285.77,394.3,285.77Z"/><path class="cls-10" d="M388.45,286.71c-15.47,10.51-63.23,24.56-68.28,27.24"/><polyline class="cls-10" points="390.38 289.23 376.61 295.24 377.73 297.08"/><path class="cls-1" d="M462,145.31l-19.14,2.58-55.61,48.52S367.22,214.89,369,223.1c4,18.49,25.31,6.95,25.31,6.95l-24,27.44s2.64,28.54,54.58,53.09,70.09-35.39,70.09-35.39l24.67-99.89s-6.52-13.7-24.67-20.55A202.57,202.57,0,0,0,462,145.31Z"/><path class="cls-17" d="M454.32,123.73s5.09,30.81,19,27.59c7.42-1.71,8,13.13,8,13.13h11.42l.57-26-3.42-20-16.09-9.43Z"/><path class="cls-18" d="M467.16,146.28s5.23,0,6.67-3.37"/><polyline class="cls-18" points="460.79 132.72 463.59 141.52 467.16 140.32"/><path class="cls-19" d="M434.39,170.82s-18.49,37.63-27.73,41.6"/><path class="cls-20" d="M397.31,205.8l-3,23.77a.73.73,0,0,0,.36.72L407,237.44a.73.73,0,0,0,1.09-.53l3.37-24.61a.73.73,0,0,0-.4-.75l-12.7-6.32A.73.73,0,0,0,397.31,205.8Z"/><path class="cls-17" d="M424,224.69l7.25,3.54,7.41,2.38s-2.87,3.45-4.27,5.26c-1.7,2.2-12-2.16-12-2.16a11.37,11.37,0,0,1-1.45-3.94c-.48-2.5,1.19-2.26,1.19-2.26s-12.56-2.78-12.05-3.75C411.17,221.85,424,224.69,424,224.69Z"/><path class="cls-19" d="M507.79,223.1S485,253.2,481.94,256.76c-3.63,4.26-14-2.56-14-2.56l-33.47-18.32,4.27-5.26L473.79,238l5.49-7.1"/><path class="cls-21" d="M369.18,367.68c-.17.3,14.64,1.66,17.66-10.49,0,0-8.35-2.91-11.8-1.09S367.75,366.5,369.18,367.68Z"/><path class="cls-17" d="M386.94,361.64c4.15,1.47,5.35,10.5-1,11.72-3.75.72-16.12,12.21-21.89,11.23s-3.83-4.89-6.1-6.28c-3-1.83-.68-4.26,4.31-4,4.66.27,10-7.08,10-7.08s1.75-2.4-.41-3.4.29-11.25,5.9-9.3,6.1,3.91,6.59,5.13S386.94,361.64,386.94,361.64Z"/><path class="cls-17" d="M272.37,442.78s-8.06,7.68-14,7.84-6.56-1.28-7.52,0-.64,4.16,1.6,4.64,1.44,4.8,5,5.6,16.8-4.48,20.64-5,11.2-2.4,10.56-5.92C288.63,450,289.23,441.5,272.37,442.78Z"/><path class="cls-14" d="M478.51,153.76a4.8,4.8,0,0,0-4.68,4.14c-.4,2.49,1.95,8.74,9.16,9.67,11.94,1.54,17.29-8.18,16.28-11l-3.68-1.88s-1.73,10.51-9.24,9.71C476.56,163.4,477.67,157.55,478.51,153.76Z"/><path class="cls-17" d="M392.13,212.42s-7,7.92-4.84,10.56,14.09,7.91,14.09,7.91a8.33,8.33,0,0,0,5.28-4.61c2-4-12.54-4.63-12.54-4.63Z"/><path class="cls-19" d="M474.07,191.62l-7.07,11a4.8,4.8,0,0,0,1.55,6.71l5.54,3.34a4.8,4.8,0,0,0,6.35-1.28L490,198.27"/><path class="cls-22" d="M454.06,108.11c-1.48,3.14-5.11,8.18-9.82,9.82-4.33,1.51,2.51,7.39,10.08,5.8,6-1.27,14.57-8.05,21.38-6.65,5.38,1.11,6,7,6,7s9.34-3.64,4.93,7.72c-3.58,9.21,6.69,6.69,6.69,6.69s6.53-25.55-6.86-35.37S457.8,100.13,454.06,108.11Z"/><line class="cls-10" x1="402.9" y1="202.48" x2="400.74" y2="196.5"/><line class="cls-10" x1="406.65" y1="204.18" x2="411.46" y2="189.19"/><path class="cls-10" d="M409.27,206.72a4.4,4.4,0,0,1,5.11-1.79c3.42,1,4.94.73,6.15-.75"/><path class="cls-7" d="M572,63.63v142a17.46,17.46,0,0,0,9.31,15.44l76.41,45.58a11.31,11.31,0,0,0,16.58-10v-152a17.46,17.46,0,0,0-10.12-15.84L588.11,53.38A11.31,11.31,0,0,0,572,63.63Z"/><line class="cls-23" x1="563.16" y1="150.56" x2="595.73" y2="138.02"/><line class="cls-7" x1="616.39" y1="237.09" x2="654.31" y2="222.49"/><line class="cls-23" x1="561.93" y1="154.7" x2="569.99" y2="152.07"/><line class="cls-7" x1="643.83" y1="230.3" x2="665.7" y2="221.78"/><polyline class="cls-7" points="674.35 156.65 668 151.4 668 203.82 674.35 207.83"/><path class="cls-24" d="M252.37,203.69s19.17-6.81,38.2,0c0,0-8.25,9-10.62,10.67-4.69,3.4-15.48-2-15.48-2Z"/><path class="cls-25" d="M318,126.63c-18.21,6.22-30.29,20.34-31.13,21.78s5.39-10.1,5.39-10.1,14.2-27.71,25.61-39.45,30-31.86,30.75-42,2.23-12-3.17-7.35-29.74,29.87-34.12,32.89S287.92,107.44,282.45,130c-4,16.45-4.81,23.08-5.05,6.73-.19-13,5.47-34.76,3.6-47S282.91,60,278.33,62.5,270,95.1,269.84,106c-.1,11.13,6.78,48.75,4.86,49.58s-1.79-1.5-5.78-13.41-24.08-45.3-35-46.86-21.11,1.15-26.79,2.46-21,2.76-21.31,4.63,19.33,1.34,22.08,2.43,25.15,1.66,35.31,12,29.63,38.38,28.33,44.62c0,0-18.88-22.82-31.44-30.86A34.28,34.28,0,0,0,213.26,126c-2.28.62,6.14,2.44,6.71,2.92,0,0,41.62,24,46.31,36.18s2.91,9.28,1.88,7.73-8.13-9.57-24.86-16.35l-.58-.24a81.1,81.1,0,0,0-7.65-8.75c-16.64-16.26-15.28-13.94-13.8-8.41a77,77,0,0,0,3.19,8.91c-9.72-4.71-17.73-9-20.18-9.94-3.94-1.57-13.86-7.28-6.72,2.53s26.48,22.21,32.35,24c1.57.49,4,1.4,6.85,2.6,7.19,8.61,20.84,27.75,19.78,28.81-1.27,1.26-7,.27-21.9-14.56s-27.87-18.69-29.05-17.64,4.58,11.47,8,15.25,12.07,8.61,14.41,13.59,20,9.21,23.68,8.14c1.47-.16,14.62-6.91,17.27-4.84s-2.65,14.83-2.65,14.83h6.8v-6.53a39.34,39.34,0,0,1,.7-8.3,27,27,0,0,1,3-7c8.78-4,17.17-7.31,20.12-6.75,6.73,1.27,44-17.17,44.08-20.83s-44.43,8.62-57.71,16.17-13.71,5.73-12,3.88,24-18.15,46.39-24.73,22.23-10,22.8-12-.57.79-9.81,3-21.22,1.34-35.12,7.88S278,168.61,276.52,169s2.56-5.83,4.12-8.13,12-11,25-16.08,52.62-25.38,56.07-36C363.47,103.57,336.22,120.41,318,126.63Zm-62.37,50.15a35.33,35.33,0,0,1,4.64,3.46c6.61,6.06,4.44,12.44,3.62,12.61C263.47,192.94,260.52,185.9,255.63,176.78Z"/><path class="cls-26" d="M275.88,257.87H267a14.68,14.68,0,0,1-14.68-14.68V203.69h0a47.25,47.25,0,0,0,38.2,0h0v39.49A14.68,14.68,0,0,1,275.88,257.87Z"/></g></g></svg>