<svg xmlns="http://www.w3.org/2000/svg" xmlns:xlink="http://www.w3.org/1999/xlink" viewBox="0 0 856.77 592.41"><defs><style>.cls-1,.cls-11,.cls-15,.cls-19,.cls-20,.cls-6,.cls-8{fill:none;}.cls-2{isolation:isolate;}.cls-3{fill:#f7ede8;}.cls-4{fill:#f7f5b5;}.cls-5{fill:#d5d0ef;}.cls-15,.cls-20,.cls-6{stroke:#fcdac8;}.cls-11,.cls-15,.cls-19,.cls-20,.cls-6,.cls-8{stroke-miterlimit:10;}.cls-6,.cls-8{stroke-width:1.87px;}.cls-11,.cls-14,.cls-15,.cls-19,.cls-20,.cls-6,.cls-7,.cls-8{mix-blend-mode:multiply;}.cls-13,.cls-7{fill:#afa3e2;}.cls-19,.cls-8{stroke:#afa3e2;}.cls-9{fill:#3d3d3d;}.cls-10,.cls-14{fill:#fcdac8;}.cls-11{stroke:#fbd2ae;stroke-width:0.69px;}.cls-12{clip-path:url(#clip-path);}.cls-15{stroke-width:0.65px;}.cls-16{clip-path:url(#clip-path-2);}.cls-17{clip-path:url(#clip-path-3);}.cls-18{fill:#aae8dc;}.cls-19{stroke-width:3.73px;}.cls-20{stroke-width:1.79px;}</style><clipPath id="clip-path"><circle class="cls-1" cx="119.06" cy="304.81" r="66.27"/></clipPath><clipPath id="clip-path-2"><circle class="cls-1" cx="232.05" cy="142.45" r="25.2"/></clipPath><clipPath id="clip-path-3"><circle class="cls-1" cx="335.69" cy="458.11" r="25.2"/></clipPath></defs><title>Osta</title><g class="cls-2"><g id="Layer_1" data-name="Layer 1"><path class="cls-3" d="M1.14,352C-12.19,488.49,93.26,581.53,230,591.89c54.87,4.15,117.21-17.67,151.59-25.11,65.47-14.17,195-4.84,211.21-3.23,133.75,13.29,249.91-73.35,254.79-207.67,4.55-125.29-91.09-232.54-217.12-241.39q-2.05-.14-4.1-.25C563.16,110.89,502.94,87,452.74,48.33A232.56,232.56,0,0,0,326.78.58C222-6.78,128.49,56.16,92.48,149.28,80.56,180.09,65.23,209.53,45.6,236.1A232.39,232.39,0,0,0,1.14,352Z"/><rect class="cls-4" x="273.15" y="393.67" width="273.61" height="121.67" rx="27.3" ry="27.3"/><rect class="cls-5" x="214.45" y="238.37" width="274.09" height="126.53" rx="27.3" ry="27.3"/><rect class="cls-6" x="399.72" y="412.07" width="73.86" height="13.63" rx="6.82" ry="6.82"/><line class="cls-6" x1="402.49" y1="444.92" x2="473.58" y2="444.92"/><line class="cls-6" x1="402.49" y1="464.14" x2="473.58" y2="464.14"/><rect class="cls-7" x="229.21" y="255.69" width="73.86" height="13.63" rx="6.82" ry="6.82"/><rect class="cls-6" x="291.87" y="412.29" width="82.28" height="82.28" rx="17.81" ry="17.81"/><line class="cls-6" x1="402.49" y1="486.56" x2="427.69" y2="486.56"/><line class="cls-8" x1="232.05" y1="299.21" x2="303.15" y2="299.21"/><line class="cls-8" x1="232.05" y1="320.26" x2="303.07" y2="320.26"/><line class="cls-8" x1="232.05" y1="340.85" x2="257.25" y2="340.85"/><circle class="cls-6" cx="512.16" cy="476.2" r="13"/><rect class="cls-4" x="117.95" y="392.16" width="122.33" height="122.33" rx="26.81" ry="26.81"/><rect class="cls-4" x="13.26" y="77.57" width="122.33" height="122.33" rx="26.81" ry="26.81"/><circle class="cls-5" cx="119.06" cy="304.81" r="66.27"/><circle class="cls-8" cx="379.28" cy="304.61" r="36.32"/><circle class="cls-8" cx="425.7" cy="304.61" r="36.32"/><path class="cls-9" d="M93,245c-.06-7,2.78-12.83,7.81-18.77,7-8.23,29.7-11.71,40.08,2.57,2.81,3.87,5.64,10.34,6.05,15.53.82,10.42,5.68,14.84,7.86,15.57,13.54,4.49,17.62,34.15-9.8,33.71H98.14A17.74,17.74,0,0,1,80.4,275.82h0c0-4.78,3.33-9.68,7.21-11.81C92.48,261.33,93.08,253.72,93,245Z"/><path class="cls-10" d="M138.21,241.35s-13,7.68-19.15,7.76-9.15,7.1-9.15,7.1,1.12-6.91-4.66-6.35-6.35,10.76,1.69,13.74c.89.33.54,3.45.56,4.42.24,9.08.16,33.62.16,33.62h21.21V280.07s8.35-2.09,9.08-10S138.21,241.35,138.21,241.35Z"/><line class="cls-11" x1="125.32" y1="262.51" x2="125.32" y2="251.83"/><path class="cls-11" d="M119,264.34a9.15,9.15,0,0,0,6.3,4.58"/><g class="cls-12"><path class="cls-13" d="M93.64,301.64H150a36.16,36.16,0,0,1,25.57,10.59L195.31,332l-29.39,45.36H73.33L42.74,332l28.45-22.54A36.16,36.16,0,0,1,93.64,301.64Z"/></g><path class="cls-14" d="M177.83,463.88v24.65a1.29,1.29,0,0,0,2.57,0V463.88a1.29,1.29,0,0,0-2.57,0Z"/><path class="cls-14" d="M172.16,465.81h-25.3a1.29,1.29,0,1,0,0,2.57h25.3a1.29,1.29,0,0,0,0-2.57Z"/><path class="cls-14" d="M172.16,470.41h-25.3a1.29,1.29,0,1,0,0,2.57h25.3a1.29,1.29,0,1,0,0-2.57Z"/><ellipse class="cls-14" cx="197.94" cy="469.4" rx="2.39" ry="2.43"/><path class="cls-14" d="M196,457.63l-.83-.1c-.05-.17-32.38-37.09-32.38-37.09a1.29,1.29,0,0,0-1.81-.1l-20.11,17.86a1.28,1.28,0,0,0-.1,1.82l15.67,17.47h-9.59a1.29,1.29,0,1,0,0,2.57h64.67a1.29,1.29,0,1,0,0-2.57H199.09s0,0,0,0l-12.89-38.07a1.29,1.29,0,0,0-1.64-.8L169.37,424a1.29,1.29,0,0,0-.79,1.64"/><path class="cls-14" d="M217.89,453.43H202.52a1.29,1.29,0,0,0,0,2.57H216.6v35h-75V456h6.87a1.29,1.29,0,0,0,0-2.57h-8.16a1.29,1.29,0,0,0-1.29,1.29v37.53a1.29,1.29,0,0,0,1.29,1.29h77.55a1.29,1.29,0,0,0,1.29-1.29V454.72A1.29,1.29,0,0,0,217.89,453.43Z"/><path class="cls-14" d="M205.44,432.82a8.36,8.36,0,1,0-8.36-8.36A8.37,8.37,0,0,0,205.44,432.82Zm0-14.15a5.79,5.79,0,1,1-5.79,5.79A5.8,5.8,0,0,1,205.44,418.67Z"/><path class="cls-14" d="M113,166.32h-9.21v-6.58h-2.63a2.63,2.63,0,1,0,0-5.26h-.88V133h.88a2.83,2.83,0,0,0,2.63-2.63h0a2.83,2.83,0,0,0-2.63-2.63h3.51v-5.26h3.51c5.26,0,7-7,2.19-9.21L76.62,96.6a4,4,0,0,0-4.38,0L38.47,113.26c-4.82,2.19-3.07,9.21,2.19,9.21h3.51v5.26h3.51A2.83,2.83,0,0,0,45,130.36h0A2.83,2.83,0,0,0,47.68,133h.88v21.49h-.88a2.63,2.63,0,0,0,0,5.26H45.49v6.58H36.28v7H113Zm-42.1-11.84H70a2.63,2.63,0,1,0,0,5.26H56a2.63,2.63,0,1,0,0-5.26h-.88V133H56a2.83,2.83,0,0,0,2.63-2.63h0A2.83,2.83,0,0,0,56,127.73H70a2.83,2.83,0,0,0-2.63,2.63h0A2.83,2.83,0,0,0,70,133h.88Zm-5.26-45.17a8.77,8.77,0,1,1,8.77,8.77A8.8,8.8,0,0,1,65.66,109.31Zm27.63,45.17h-.88a2.63,2.63,0,1,0,0,5.26h-14a2.63,2.63,0,1,0,0-5.26H77.5V133h.88A2.83,2.83,0,0,0,81,130.36h0a2.83,2.83,0,0,0-2.63-2.63h14a2.83,2.83,0,0,0-2.63,2.63h0A2.83,2.83,0,0,0,92.41,133h.88Z"/><line class="cls-8" x1="84.56" y1="342.77" x2="89.09" y2="364.91"/><path class="cls-8" d="M165,331s4.86,10.7,4.47,16.84"/><rect class="cls-4" x="170.39" y="77.9" width="273.61" height="121.67" rx="27.3" ry="27.3"/><rect class="cls-6" x="296.96" y="96.3" width="73.86" height="13.63" rx="6.82" ry="6.82"/><line class="cls-6" x1="299.73" y1="129.15" x2="370.82" y2="129.15"/><line class="cls-6" x1="299.73" y1="148.37" x2="370.82" y2="148.37"/><rect class="cls-6" x="189.11" y="96.52" width="82.28" height="82.28" rx="17.81" ry="17.81"/><line class="cls-6" x1="299.73" y1="170.79" x2="324.93" y2="170.79"/><circle class="cls-6" cx="409.4" cy="160.44" r="13"/><path class="cls-14" d="M222.14,119.68a10.65,10.65,0,0,1,3-7.14c2.64-3.13,11.29-4.45,15.24,1a13.14,13.14,0,0,1,2.3,5.91c.31,4,2.16,5.65,3,5.92,5.15,1.71,6.7,13-3.73,12.82H224.09a6.75,6.75,0,0,1-6.75-6.75h0a5.51,5.51,0,0,1,2.74-4.49C221.94,125.91,222.17,123,222.14,119.68Z"/><path class="cls-3" d="M239.33,118.31s-4.93,2.92-7.28,3-3.48,2.7-3.48,2.7.43-2.63-1.77-2.41-2.41,4.09.64,5.22c.34.13.2,1.31.21,1.68.09,3.45.06,12.79.06,12.79h8.07V133s3.18-.79,3.45-3.79S239.33,118.31,239.33,118.31Z"/><line class="cls-15" x1="234.8" y1="123.99" x2="234.8" y2="126.66"/><path class="cls-15" d="M232,127.05a3.48,3.48,0,0,0,2.39,1.74"/><g class="cls-16"><path class="cls-14" d="M222.38,141.24h21.43a13.75,13.75,0,0,1,9.72,4l7.52,7.52L249.87,170H214.66L203,152.79l10.82-8.57A13.75,13.75,0,0,1,222.38,141.24Z"/></g><line class="cls-15" x1="218.93" y1="156.89" x2="220.65" y2="165.3"/><path class="cls-15" d="M249.51,152.41s1.85,4.07,1.7,6.4"/><path class="cls-14" d="M325.78,435.35a10.65,10.65,0,0,1,3-7.14c2.64-3.13,11.29-4.45,15.24,1a13.14,13.14,0,0,1,2.3,5.91c.31,4,2.16,5.65,3,5.92,5.15,1.71,6.7,13-3.73,12.82H327.73a6.75,6.75,0,0,1-6.75-6.75h0a5.51,5.51,0,0,1,2.74-4.49C325.58,441.57,325.81,438.68,325.78,435.35Z"/><path class="cls-3" d="M343,434s-4.93,2.92-7.28,3-3.48,2.7-3.48,2.7.43-2.63-1.77-2.41-2.41,4.09.64,5.22c.34.13.2,1.31.21,1.68.09,3.45.06,12.79.06,12.79h8.07v-8.2s3.18-.79,3.45-3.79S343,434,343,434Z"/><line class="cls-15" x1="338.44" y1="439.66" x2="338.44" y2="442.33"/><path class="cls-15" d="M335.68,442.72a3.48,3.48,0,0,0,2.39,1.74"/><g class="cls-17"><path class="cls-14" d="M326,456.91h21.43a13.75,13.75,0,0,1,9.72,4l7.52,7.52L353.51,485.7H318.3l-11.64-17.25,10.82-8.57A13.75,13.75,0,0,1,326,456.91Z"/></g><line class="cls-15" x1="322.57" y1="472.55" x2="324.29" y2="480.97"/><path class="cls-15" d="M353.15,468.07s1.85,4.07,1.7,6.4"/><circle class="cls-18" cx="22.65" cy="268.91" r="17.89"/><polyline class="cls-19" points="13.8 268.74 19.87 274.8 31.39 263.29"/><path class="cls-10" d="M475.71,326.82s-22.66-5.29-34.13-27.47c-9.06-17.52.09-25.55,18-14.81,11.09,6.66,60.09,19.35,62.76,19.27s15.78,1,25,7.33,57.62,36.61,60.74,35.72,12-14.48,15.57-16.18,16.62-5.45,30.9-2.64,18.57-8.07,24.79-9.86,9.41-4.76,27.09.52,14.64,4.08,21.56,0,14.76-4.91,35.58,4.3c15.22,6.73,45.71,45.45,61,65.81A63.47,63.47,0,0,1,836.36,416l20.41,116.15-124.5,39.56-37.93-1a350.18,350.18,0,0,1-87.94-13.6l-71.3-20.57s-37.61-9.06-41-16.35S499.1,505,530,497.51s45.86,9.63,70.17,7.5,41.94-29.94,33.62-61.35-38.53-59.32-64.7-68.38-36.33-23.39-48.3-27.55S475.71,326.82,475.71,326.82Z"/><path class="cls-20" d="M447.53,279.82s-5.4,9.72,8.1,16.89,19.9-5.7,19.9-5.7"/><path class="cls-20" d="M509.68,506.76S533,512.4,523.5,533.45"/><path class="cls-10" d="M585.37,383.07s-30.13,45.13-21.13,57.73,25.4,45.83,30.16,48.61,24.79,7.73,24.79,7.73,53.4-14.25,53.13-15.21-40.77-108.68-40.77-108.68Z"/><path class="cls-20" d="M619.78,414.94S610,430.46,610,433.21s7.48,26.14,7.48,26.14,12.28-2.29,18.24,3.67"/><path class="cls-20" d="M627.2,488.45c7.87-11.42,11.12-27.57,6.55-44.8-5.2-19.63-19-37.9-34.92-51"/></g></g></svg>